<?xml version="1.0" encoding="UTF-8" standalone="no"?>
<!-- Created with Inkscape (http://www.inkscape.org/) -->

<svg
   width="300mm"
   height="300mm"
   viewBox="0 0 300 300"
   version="1.1"
   id="svg1"
   inkscape:version="1.4 (e7c3feb100, 2024-10-09)"
   sodipodi:docname="map2.svg"
   xmlns:inkscape="http://www.inkscape.org/namespaces/inkscape"
   xmlns:sodipodi="http://sodipodi.sourceforge.net/DTD/sodipodi-0.dtd"
   xmlns="http://www.w3.org/2000/svg"
   xmlns:svg="http://www.w3.org/2000/svg">
  <sodipodi:namedview
     id="namedview1"
     pagecolor="#ffffff"
     bordercolor="#000000"
     borderopacity="0.25"
     inkscape:showpageshadow="2"
     inkscape:pageopacity="0.0"
     inkscape:pagecheckerboard="0"
     inkscape:deskcolor="#d1d1d1"
     inkscape:document-units="mm"
     inkscape:clip-to-page="true"
     showgrid="false"
     inkscape:zoom="0.5"
     inkscape:cx="412"
     inkscape:cy="539"
     inkscape:window-width="1896"
     inkscape:window-height="1016"
     inkscape:window-x="0"
     inkscape:window-y="0"
     inkscape:window-maximized="1"
     inkscape:current-layer="layer1">
    <inkscape:grid
       id="grid1"
       units="mm"
       originx="0"
       originy="0"
       spacingx="0.99999999"
       spacingy="0.99999999"
       empcolor="#0099e5"
       empopacity="0.30196078"
       color="#0099e5"
       opacity="0.14901961"
       empspacing="5"
       enabled="true"
       visible="false" />
  </sodipodi:namedview>
  <defs
     id="defs1">
    <inkscape:path-effect
       effect="fillet_chamfer"
       id="path-effect17"
       is_visible="true"
       lpeversion="1"
       nodesatellites_param="F,0,0,1,0,0.62521055,0,1 @ F,0,0,1,0,0.74438972,0,1 @ F,0,0,1,0,0.82665054,0,1 @ F,0,0,1,0,0.78447213,0,1 @ F,0,0,1,0,1.0733435,0,1 @ F,0,0,1,0,1.1313257,0,1 @ F,0,0,1,0,0,0,1"
       radius="0"
       unit="px"
       method="auto"
       mode="F"
       chamfer_steps="1"
       flexible="false"
       use_knot_distance="true"
       apply_no_radius="true"
       apply_with_radius="true"
       only_selected="false"
       hide_knots="false" />
  </defs>
  <g
     inkscape:label="Layer 1"
     inkscape:groupmode="layer"
     id="layer1">
    <rect
       style="fill:#000080;stroke-width:0.399222"
       id="rect1"
       width="300"
       height="300"
       x="0"
       y="0"
       ry="0" />
    <path
       id="path20"
       style="fill:#008000;stroke-width:0.264583"
       d="m 159.60783,40.146387 c -7.07047,0.02636 -13.26868,8.72061 -26.49973,3.270571 -8.46855,5.662461 -14.2478,12.507056 -18.62827,8.569533 -2.95032,-1.347413 -4.42628,1.599108 -9.14693,-3.054755 -7.1019,1.696137 -9.768357,7.167331 -17.480898,-1.036985 -13.019102,-3.9e-5 -16.825736,5.667417 -25.400035,14.575901 -8.574299,8.908484 -2.960985,20.388818 -2.961024,34.131204 0.01488,5.035974 -4.772308,11.539394 -5.414849,16.845244 1.883157,4.74457 5.264357,10.36722 4.276417,20.06362 -7.468325,5.58794 -17.160554,2.82895 -23.152516,8.22042 -2.816961,8.56648 12.11475,32.24497 12.090142,41.4954 9.2e-5,22.31847 -10.529788,37.5386 27.334546,7.78831 11.074444,-4.58527 16.519104,-4.65172 28.948637,-1.72797 4.31842,3.38091 8.74114,10.76458 11.49297,18.65635 -0.64008,7.22287 -0.96848,20.19768 -4.58751,34.33695 13.25095,8.03336 27.87605,-4.63303 34.96445,-5.62512 16.35707,26.80019 25.92083,2.35458 30.12852,-10.02763 3.91584,-4.93886 0.91497,-4.02066 8.64098,-4.86298 13.28226,4.18476 13.34645,-4.6907 15.53063,-4.66661 19.42519,-7e-5 25.24371,0.0145 37.83509,-12.09936 4.65388,-14.23054 12.93069,-28.96812 20.60372,-47.09548 -10.58433,-9.42721 -8.39725,-21.75343 -10.08756,-34.35905 -7.77573,-12.8702 -20.60709,-13.44561 -30.80244,-22.65452 4.11991,-18.664701 -17.74599,-22.589192 -29.6151,-33.320314 2.68297,-18.139436 -14.87529,-10.220295 -28.06924,-27.422729 z"
       sodipodi:nodetypes="ccccccccccccccccccccccccc" />
    <path
       style="fill:#666666;stroke-width:0.264583"
       d="m 145.61437,60.282584 c -1.25883,-0.463111 -1.56485,-0.599078 -2.14005,-0.805443 -0.88174,-0.316345 -1.07309,0.312586 -1.80714,1.04664 -0.12473,0.124725 -0.85221,0.838437 -1.27752,1.672105 -0.46051,0.902676 -1.1372,0.726014 -1.90023,1.822737 -0.41735,0.599875 -2.05533,2.218118 -2.4936,2.656376 -0.29596,0.29596 -0.34726,0.876425 -0.52917,1.058333 -0.35145,0.351449 -1.55094,0.985224 -1.85208,1.5875 -0.0789,0.157766 0.0789,0.371399 0,0.529167 -0.18772,0.375441 -7.39648,3.433657 -8.46666,3.96875 -0.29364,0.146817 -2.98303,5.364271 -3.70417,6.085417 -0.30868,0.308681 -0.48507,0.749652 -0.79375,1.058333 -0.0279,0.02789 -0.97124,0.442071 -1.32292,0.79375 -0.21619,0.216194 -1.3713,0.04839 -1.5875,0.264583 -1.34009,1.340088 -4.26781,1.092817 -5.55625,2.38125 -0.12473,0.124725 -0.40444,-0.124727 -0.52916,0 l -3.43959,3.439584 c -0.22049,0.220485 -0.0441,0.837848 -0.26458,1.058333 -1.19374,1.193739 -1.72602,5.1656 -2.64583,6.085416 -0.36792,0.367909 -0.0581,1.381004 -0.52917,1.852084 -0.43272,0.432723 -1.0682,0.803608 -1.5875,1.322916 -0.30225,0.302247 -1.33478,0.276448 -1.5875,0.529167 -0.23478,0.234775 -0.93159,0.79375 -1.32292,0.79375 -0.35962,0 -3.417211,1.565128 -3.704165,1.852088 -0.234632,0.23463 -0.739431,0.10513 -1.058333,0.26458 -0.863661,0.43183 -4.379973,2.67453 -4.7625,3.43958 -0.07888,0.15777 0.07888,0.3714 0,0.52917 -0.235963,0.47193 -1.67858,1.414 -2.116666,1.85208 -0.264584,0.26459 0,1.05834 -0.264584,1.32292 -0.406656,0.40666 -0.587354,1.3811 -0.79375,1.5875 -0.440973,0.44097 -0.881943,0.88194 -1.322916,1.32292 -0.254366,0.25436 -0.189577,0.98332 -0.529167,1.32291 -0.17639,0.17639 -0.61736,0.0882 -0.79375,0.26459 -0.705556,0.70555 -1.41111,1.41111 -2.116667,2.11666 -0.187089,0.18709 -0.557098,-0.11833 -0.79375,0 -0.185869,0.0929 -2.30402,2.30402 -2.645833,2.64584 -0.124727,0.12472 0.124725,0.40443 0,0.52916 -1.215586,1.21559 -4.051562,7.32552 -2.116667,9.26042 0.185188,0.18519 0.09915,1.15748 0.529167,1.5875 0.264583,0.26458 0,1.05833 0.264583,1.32292 0.124725,0.12472 0.40444,-0.12473 0.529167,0 0.396875,0.39687 0.926042,0.66145 1.322917,1.05833 1.747932,1.74793 6.003157,-0.0411 7.672916,0.79375 0.821815,0.4109 4.196099,2.11666 4.7625,2.11666 0.378971,0 2.140053,0.2412 2.38125,0 0.554503,-0.5545 1.642197,-0.84844 2.38125,-1.5875 0.79375,-0.79375 1.5875,-1.58749 2.38125,-2.38124 0.124725,-0.12473 -0.124727,-0.40445 0,-0.52917 0.440973,-0.44097 0.881948,-0.88195 1.322918,-1.32292 0.12472,-0.12473 -0.12473,-0.40444 0,-0.52916 0.48507,-0.48508 1.10243,-0.83785 1.5875,-1.32292 0.17639,-0.17639 0.0882,-0.61736 0.26458,-0.79375 0.13695,-0.13695 0.92139,-0.12764 1.05834,-0.26458 1.06445,-1.06446 2.26253,-1.66044 3.70416,-2.38125 0.46793,-0.23397 1.22525,-1.48984 1.85209,-2.11667 0.0164,-0.745 0.59654,-0.0674 0.79375,-0.26458 0.19923,-0.19924 0.41729,-0.94647 0.52916,-1.05834 0.58289,-0.58288 1.11632,-0.85173 1.5875,-1.32291 0.25709,-0.2571 0.50902,-1.30277 0.79375,-1.5875 0.19282,-0.19283 0.79737,-0.26821 1.05834,-0.52917 0.47118,-0.47118 0.74003,-1.00462 1.32291,-1.5875 0.34982,-0.34982 0.96812,-0.35177 1.32292,-0.52917 0.23239,-0.11619 1.55745,-1.55745 1.85208,-1.85208 0.0882,-0.0882 0.17639,-0.70556 0.26459,-0.79375 0.30867,-0.30868 0.74965,-0.48507 1.05833,-0.79375 0.39026,-0.39026 0.20485,-1.52777 0.52917,-1.85208 0.54544,-0.54545 0.66446,-0.92905 1.05833,-1.32292 0.22048,-0.22049 0.0441,-0.83785 0.26458,-1.05833 0.92006,-0.92006 2.0258,-2.02581 2.91042,-2.91042 0.11087,-0.11087 0.6334,-0.18441 0.79375,-0.26458 0.81955,-0.40978 1.96709,-1.43793 2.38125,-1.85209 0.0156,-0.0156 1.00356,-4.178565 1.32292,-4.497915 1.03226,-1.032261 2.60013,-2.335556 3.70416,-3.439583 0.12473,-0.124727 0.40444,0.124725 0.52917,0 0.27068,-0.270682 0.73754,-0.737544 1.05833,-1.058333 0.21048,-0.210476 1.13282,-0.339064 1.32292,-0.529167 0.30868,-0.308681 0.48507,-0.749652 0.79375,-1.058333 0.15335,-0.153353 0.90498,-0.375814 1.05833,-0.529167 0.0804,-0.08037 0.52166,-1.319165 0.52917,-1.322916 0.15776,-0.07888 0.3714,0.07888 0.52916,0 0.23239,-0.116195 1.55746,-1.557452 1.85209,-1.852084 0.0451,-0.04509 0.66638,-2.582151 1.32291,-2.910416 0.15777,-0.07888 0.3714,0.07888 0.52917,0 0.29079,-0.145397 2.61903,-2.619031 3.175,-3.175 0.12473,-0.124728 0.40444,0.124724 0.52917,0 0.30868,-0.308682 0.48507,-0.749652 0.79375,-1.058334 0.12472,-0.124727 0.40444,0.124725 0.52916,0 0.88195,-0.881943 1.76389,-1.763889 2.64584,-2.645833 0.37633,-0.376335 0.41253,-1.206283 0.79375,-1.5875 0.66394,-0.66394 1.41814,-1.682721 2.11666,-2.38125 0.12473,-0.124727 -0.12472,-0.404442 0,-0.529167 0.15591,-0.155903 0.70366,-0.348974 0.79375,-0.529166 0.11833,-0.236652 -0.18708,-0.606661 0,-0.79375 0.41751,-0.417505 0.92349,-1.188069 1.32292,-1.5875 0.68991,-0.689907 0.70112,-2.357084 -0.0293,-2.825586 -0.74673,-0.47894 -1.25896,-0.733037 -1.83008,-1.159214 -0.46074,-0.34381 -0.68737,-2.266153 -0.78641,-2.3652 -0.26459,-0.264583 -1.05834,0 -1.32292,-0.264583 -0.62081,-0.620811 -1.12695,-1.092642 -2.11667,-1.5875 -0.0946,-0.04732 -0.75288,0.08174 -0.79375,0 -0.0789,-0.157769 -0.23681,-0.114154 -0.31571,-0.27192 -0.0549,-0.109829 -0.38568,-0.164897 -0.47804,-0.257247 -0.0624,-0.06236 -0.18709,-0.29332 -0.31571,-0.498444 -0.61736,-0.440974 -0.82547,-0.425915 -1.44283,-0.866888 z"
       id="path27"
       sodipodi:nodetypes="cssssssscsssscsccssssssssssssssssscscsssssssssssscsscscssssssssssssssssssssssscssssssssssssssssssssssscc" />
    <path
       style="fill:#666666;stroke-width:0.264583"
       d="m 184.94375,110.59583 c -0.78345,-2.0913 0.82927,2.13443 1.85208,2.64584 0.88732,0.44365 0.95939,1.75314 1.5875,2.38125 0.18332,0.18331 0.61043,0.61043 0.79375,0.79375 0.13229,0.13229 -0.13229,0.66145 0,0.79375 0.13218,0.13218 1.11859,2.05641 0.52917,2.64583 -0.30994,0.30993 -1.53745,0.90817 -1.5875,1.05833 -0.20695,0.62084 -0.39602,0.92518 -0.79375,1.32292 -0.13229,0.13229 -0.66146,-0.13229 -0.79375,0 -0.47118,0.47118 -1.2692,0.47545 -1.85209,1.05833 -0.43358,0.43359 -0.66835,1.99127 -1.32291,2.64584 -0.19375,0.19374 -1.43678,0.11386 -1.85209,0.52916 -0.13748,0.13748 -2.08838,0.0283 -2.38125,-0.26458 -0.19282,-0.19282 -0.2682,-0.79737 -0.52916,-1.05833 -0.48507,-0.48508 -1.10243,-0.83785 -1.5875,-1.32292 -0.30868,-0.30868 -0.22049,-1.01424 -0.52917,-1.32292 -0.40833,-0.40833 -0.99905,-0.93977 -1.32292,-1.5875 -0.0485,-0.0969 0.11131,-0.94703 0,-1.05833 -0.83784,-0.83785 -0.48507,-2.86632 -1.32291,-3.70417 -0.12473,-0.12473 0.12472,-0.40444 0,-0.52916 l -2.91042,-2.91042 c -0.2337,-0.23371 -0.20369,-3.37869 -1.05833,-4.23333 l -2.38125,-2.38125 c -0.12473,-0.12473 -0.40444,0.12472 -0.52917,0 -0.26458,-0.26459 -0.52917,-0.52917 -0.79375,-0.79375 -0.12473,-0.12473 -0.45028,0.15776 -0.52917,0 -0.0789,-0.15777 0.0789,-0.37141 0,-0.52917 -0.0549,-0.10983 -0.70139,0.0923 -0.79375,0 -0.61736,-0.61736 -1.76389,-0.70556 -2.38125,-1.32292 -0.12472,-0.12473 -0.40444,0.12473 -0.52916,0 -0.18191,-0.18191 -0.23321,-0.76237 -0.52917,-1.05833 -0.39687,-0.39688 0.39688,-1.98438 0,-2.38125 -0.4977,-0.497698 -0.55403,-3.464447 -0.79375,-3.704168 -0.31665,-0.316656 -0.60041,-1.200819 -0.79375,-1.5875 -0.319,-0.638008 0.15252,-0.905809 -0.26458,-1.322917 -0.13754,-0.137538 -0.11711,-2.762943 -0.52917,-3.174999 -0.31354,-0.31354 -1.80313,-0.480214 -2.11667,-0.79375 -0.68409,-0.684094 -1.22661,-1.755781 -1.85208,-2.38125 -0.003,-0.003 -0.52917,-3.334727 -0.52917,-3.704167 0,-0.207171 0.13202,-1.190895 0,-1.322917 -0.13229,-0.132291 -0.39687,-0.132291 -0.52916,-0.264583 -0.13229,-0.132292 0.13229,-0.661458 0,-0.79375 -0.48507,-0.485069 -0.83785,-1.102431 -1.32292,-1.5875 -0.13229,-0.132292 0.13229,-0.661458 0,-0.79375 -0.26196,-0.261964 -0.59324,-0.607867 -0.79375,-1.058333 -0.60804,-1.366028 -0.91925,-1.843225 -1.05833,-3.175 -0.12136,-1.162099 0.65052,-2.502604 0.79375,-2.645834 0.26458,-0.264583 0,-1.058333 0.26458,-1.322916 0.12473,-0.124727 0.40444,0.124724 0.52917,0 0.84605,-0.846048 1.10154,-1.079939 2.11666,-1.5875 0.41278,-0.206388 2.61402,-0.963123 3.17362,-0.403524 0.22049,0.220486 0.74569,0.720919 0.96618,0.941404 0.52916,0.529166 1.0047,1.157592 0.90196,1.898855 -0.12527,0.903717 -0.0571,1.953191 0.51449,2.854931 0.49645,0.783218 2.55764,2.028473 3.70417,3.175 0.70556,0.705557 -0.70556,3.527777 0,4.233334 1.05833,1.058333 2.38125,1.852083 3.43958,2.910416 0.78432,0.784321 -1.13043,2.309154 -0.52916,2.910417 1.10925,1.109255 2.80958,2.015834 3.96875,3.175 0.12472,0.124724 -0.12473,0.404439 0,0.529167 0.13229,0.132291 0.39687,0.132291 0.52916,0.264583 0.22049,0.220485 0.0441,0.837848 0.26459,1.058333 0.0574,0.05741 0.50337,0.212998 0.52916,0.264584 0.38979,0.779576 -0.16804,0.361121 0.26459,0.793749 0.30868,0.308682 -0.0441,1.278819 0.26458,1.5875 0.40666,0.406657 0.58735,1.381102 0.79375,1.5875 1.39361,1.393608 2.34863,2.877799 3.96875,4.497915 0.17639,0.17639 -0.17639,0.35278 0,0.52917 0.79451,0.79451 0.90128,1.95961 1.5875,2.64583 0.12473,0.12473 -0.12473,0.40444 0,0.52917 0.52917,0.52917 0.79375,1.32292 1.32292,1.85208 0.12472,0.12473 -0.12473,0.40444 0,0.52917 1.36103,1.36103 2.294,2.02901 4.7625,3.43958 z"
       id="path28"
       sodipodi:nodetypes="csssssssssssssssccsscsssssscsssssssssssssssssssssssssssssssssscsssssssssc" />
    <path
       style="fill:#666666;stroke-width:0.264583"
       d="m 210.60833,162.71875 c -3.47993,2.68925 3.8848,-3.44277 -2.11667,1.05833 -0.14111,0.10583 0.0789,0.3714 0,0.52917 -0.16418,0.32837 -2.01222,2.01222 -2.38125,2.38125 -0.0217,0.0217 -1.03665,2.09498 -1.05833,2.11666 -0.83785,0.83785 -1.80799,1.54341 -2.64583,2.38125 -0.30868,0.30868 -1.27882,-0.0441 -1.5875,0.26459 -0.97444,0.97443 -1.99538,1.92373 -3.43959,2.64583 -3.32996,1.66498 -5.24624,3.92333 -7.67291,6.35 -0.12473,0.12473 0.12472,0.40444 0,0.52917 -0.99965,0.99965 -0.8545,2.44199 -1.5875,3.175 -0.46235,0.46234 -0.0511,4.54901 -1.05834,5.55625 -0.12472,0.12472 0.12473,0.40444 0,0.52916 -0.83784,0.83785 -1.5434,1.80799 -2.38125,2.64584 -0.12472,0.12472 -0.40444,-0.12473 -0.52916,0 -0.61737,0.61736 -1.49931,0.97013 -2.11667,1.5875 -0.12473,0.12472 -0.40444,-0.12473 -0.52917,0 -0.38722,0.38722 -0.85003,1.35106 -1.32291,1.5875 -0.23665,0.11832 -0.60667,-0.18709 -0.79375,0 -0.74966,0.74965 -1.36702,1.63159 -2.11667,2.38125 -0.17982,0.17982 -0.10155,1.15988 -0.52917,1.5875 -0.13229,0.13229 0.1323,0.66146 0,0.79375 -0.20898,0.20898 -1.17368,2.79506 -0.79375,3.175 0.58319,0.58319 1.53326,1.79784 2.11667,2.38125 0.17639,0.17638 0.0882,0.61736 0.26458,0.79375 0.38236,0.38235 3.26742,0.26458 4.23334,0.26458 0.42132,0 2.37769,0.26814 2.64583,0 0.78964,-0.78964 4.37333,-0.93374 5.29167,-1.85208 0.13229,-0.13229 0.66146,0.13229 0.79375,0 0.93711,-0.93711 3.23787,-0.85663 4.23333,-1.85209 0.13229,-0.13229 0.66146,0.1323 0.79375,0 0.7922,-0.7922 3.3302,-1.46284 4.49792,-1.85208 0.45558,-0.15186 0.84235,-0.57778 1.05833,-0.79375 0.0871,-0.0871 3.9669,-1.85116 4.49792,-2.11667 0.31749,-0.15874 3.2091,-3.2091 3.70416,-3.70416 0.0882,-0.0882 0.17639,-0.70556 0.26459,-0.79375 1.45521,-1.45521 3.04271,-2.77813 4.49791,-4.23334 0.2064,-0.20639 0.3871,-1.18084 0.79375,-1.5875 0.36131,-0.3613 -0.0967,-2.01994 0.26459,-2.38125 0.30868,-0.30868 0.22048,-1.01423 0.52916,-1.32291 0.35278,-0.35278 0.70556,-0.70556 1.05834,-1.05834 0.0921,-0.0921 0.51982,-1.31824 0.52916,-1.32291 1.5998,-0.7999 1.77427,-1.2451 2.91042,-2.38125 0.0882,-0.0882 0.70555,-0.17639 0.79375,-0.26459 1.71979,-1.71979 3.30729,-3.57187 5.02708,-5.29166 0.0133,-0.0133 0.52917,-3.34589 0.52917,-3.70417 0,-0.20717 -0.13202,-1.1909 0,-1.32292 0.22049,-0.22048 0.30868,-0.57326 0.52917,-0.79375 0.37568,-0.37568 0,-3.11382 0,-3.70416 0,-0.16146 0.10309,-0.95524 0,-1.05834 -0.12473,-0.12472 -0.40444,0.12473 -0.52917,0 -0.83785,-0.83784 -1.5434,-1.80798 -2.38125,-2.64583 -0.26458,-0.26458 -1.05833,0 -1.32292,-0.26458 -0.5071,-0.50711 -3.24689,-1.51561 -4.23333,-0.52917 -0.26458,0.26458 -1.05833,0 -1.32292,0.26458 -0.17639,0.17639 -0.88194,-0.17639 -1.05833,0 -0.13256,0.13256 -0.35571,0.6203 -0.52917,0.79375 -0.17639,0.17639 -0.88194,-0.17639 -1.05833,0 -0.35278,0.35278 -0.97014,0.44098 -1.32292,0.79375 -0.30117,0.30118 -3.13505,0.26459 -3.43958,0.26459 z"
       id="path29" />
    <path
       style="fill:#0000ff;stroke-width:0.264583"
       id="path30"
       d="m 105.10666,123.19381 c 0.12524,0.2493 0.26104,0.49358 0.37873,0.7466 0.12682,0.25673 0.26471,0.50834 0.38493,0.76825 0.12501,0.25387 0.26142,0.50246 0.38003,0.75942 0.13741,0.29162 0.30864,0.56473 0.4681,0.84423 0.16806,0.2732 0.34272,0.54214 0.51695,0.81137 0.17359,0.29803 0.40576,0.55383 0.62909,0.81421 0.18959,0.21471 0.39176,0.41783 0.58426,0.62979 0.22856,0.26424 0.5237,0.45321 0.79208,0.67175 0.23436,0.17282 0.47239,0.34046 0.70807,0.51149 0.20623,0.14377 0.42317,0.27463 0.6179,0.43424 0.14289,0.10949 0.24411,0.2586 0.35472,0.39803 0.10369,0.12226 0.16727,0.26597 0.2217,0.41481 0.0185,0.0951 0.0175,0.18848 0.012,0.2823 -0.004,0.11324 -0.0551,0.20522 -0.0968,0.30434 -0.0772,0.18596 -0.15586,0.37654 -0.27001,0.54366 -0.11547,0.14984 -0.23781,0.29663 -0.36794,0.43465 -0.14616,0.15866 -0.3097,0.29774 -0.47939,0.43012 -0.18269,0.11936 -0.36174,0.24581 -0.55852,0.34136 -0.24496,0.14257 -0.50585,0.25273 -0.76271,0.37131 -0.23589,0.0923 -0.46598,0.19922 -0.70552,0.282 -0.29239,0.10784 -0.57808,0.23233 -0.86821,0.34572 -0.34211,0.13935 -0.66865,0.31178 -0.98592,0.50012 -0.39086,0.23876 -0.74928,0.52366 -1.0908,0.82757 -0.34173,0.29298 -0.65403,0.61867 -0.94995,0.9573 -0.30078,0.35391 -0.56678,0.73033 -0.79313,1.13565 -0.18877,0.36121 -0.36025,0.72887 -0.5013,1.11134 -0.15212,0.42671 -0.24514,0.86902 -0.29483,1.31842 -0.0399,0.4906 0.0285,0.97652 0.13712,1.45365 0.0999,0.39426 0.27905,0.76191 0.45902,1.1246 0.13718,0.32513 0.33934,0.61507 0.54108,0.90221 0.26585,0.377 0.6163,0.67446 0.99362,0.9335 0.34297,0.20394 0.70242,0.38033 1.07116,0.53254 0.391,0.15568 0.8016,0.24894 1.21404,0.32607 0.0173,-0.0251 0.63917,0.1219 0.48103,0.096 0.0277,0.0204 0.1489,0.0726 0.0647,0.0666 0.02,0.0898 0.0861,0.17899 0.0808,0.2726 0.002,0.0684 -0.0272,0.14556 -0.0561,0.2826 -0.0426,0.0832 -0.0984,0.14784 -0.17509,0.26545 -0.11351,0.12765 -0.22858,0.25731 -0.35106,0.3781 -0.1372,0.11412 -0.26327,0.24292 -0.41589,0.33742 -0.27418,0.20684 -0.54177,0.42199 -0.81585,0.62892 -0.20932,0.14671 -0.42818,0.27933 -0.65324,0.40044 -0.2735,0.13903 -0.54842,0.27482 -0.82715,0.40319 -0.33076,0.16557 -0.66442,0.32435 -0.98759,0.5045 -0.31875,0.16649 -0.62892,0.34608 -0.92984,0.54311 -0.32888,0.20947 -0.64799,0.43411 -0.95843,0.66993 -0.36302,0.2706 -0.65909,0.61061 -0.94869,0.95491 -0.31181,0.34703 -0.533292,0.75478 -0.757416,1.15982 -0.227316,0.41913 -0.384235,0.86906 -0.515728,1.32576 -0.154255,0.52287 -0.151209,1.05657 -0.0743,1.59059 0.08824,0.48047 0.289999,0.92562 0.518903,1.35319 0.202531,0.35352 0.461343,0.66697 0.719221,0.98031 0.14186,0.15045 0.27592,0.30307 0.36367,0.49081 0.0339,0.0796 0.0245,0.20313 0.0306,0.33546 -0.0184,0.14162 -0.0305,0.28918 -0.0771,0.42558 -0.0415,0.13838 -0.0872,0.28521 -0.16916,0.40625 -0.0704,0.15476 -0.17618,0.28095 -0.28137,0.40809 -0.0873,0.0809 -0.264285,0.22331 -0.391846,0.3198 -0.183727,0.1466 -0.366403,0.2992 -0.568185,0.4209 -0.166108,0.0958 -0.328427,0.1942 -0.508296,0.26188 -0.198041,0.0699 -0.404834,0.10884 -0.611175,0.1447 -0.232391,0.0497 -0.468699,0.0426 -0.704762,0.0425 -0.214437,0.005 -0.426747,-0.0271 -0.636397,-0.0681 -0.340863,-0.0701 -0.68547,-0.11803 -1.030957,-0.15805 -0.367525,-0.0407 -0.736606,-0.0642 -1.105728,-0.0844 -0.465987,-0.0243 -0.926397,0.0414 -1.379755,0.14248 -0.454612,0.10215 -0.86813,0.30208 -1.263316,0.5433 -0.427493,0.2639 -0.777881,0.6229 -1.104625,0.99971 -0.268166,0.33029 -0.553564,0.64588 -0.830427,0.9688 -0.299328,0.35022 -0.561213,0.72912 -0.819862,1.10962 -0.261432,0.37829 -0.483298,0.77591 -0.667011,1.19726 -0.152726,0.37641 -0.300853,0.75335 -0.421685,1.14138 -0.122902,0.4077 -0.198793,0.82691 -0.262457,1.24725 -0.05721,0.39404 -0.09149,0.79083 -0.120737,1.18776 -0.04071,0.43845 -0.04502,0.8764 -0.0079,1.3149 0.03817,0.4651 0.171368,0.90866 0.341313,1.34043 0.147981,0.36094 0.343704,0.6977 0.546959,1.02945 0.223727,0.35306 0.504331,0.66327 0.804815,0.95169 0.257273,0.25406 0.540652,0.48079 0.834028,0.69145 0.354941,0.24387 0.751652,0.40985 1.147871,0.57237 0.407704,0.17264 0.832498,0.29653 1.262017,0.40076 0.413282,0.0967 0.833676,0.15636 1.254684,0.20685 0.283794,0.0501 0.567435,0.0971 0.848135,0.16217 0.252042,0.0539 0.497501,0.13392 0.74065,0.21853 0.123116,0.0407 0.289195,0.0894 0.37991,0.17789 -0.06398,-0.0425 -0.02143,0.0344 -0.04683,0.0111 -0.02892,-0.0576 -0.02943,0.0157 -0.03323,0.052 -0.0273,0.19878 -0.07571,0.40613 -0.110349,0.61145 -0.05639,0.15876 -0.05865,0.34141 -0.140735,0.4911 -0.0616,0.146 -0.130413,0.2948 -0.225645,0.42274 -0.157048,0.18387 -0.288186,0.42652 -0.439554,0.63163 -0.09789,0.13258 -0.192773,0.28878 -0.32955,0.38653 -0.179411,0.13815 -0.367948,0.2672 -0.552312,0.39984 -0.310592,0.23112 -0.584925,0.50276 -0.846915,0.78642 -0.277638,0.30086 -0.478311,0.65458 -0.681646,1.00632 -0.18523,0.31313 -0.315156,0.65325 -0.456478,0.9872 -0.160533,0.37542 -0.264142,0.77024 -0.349758,1.16832 -0.07509,0.42094 -0.08302,0.84951 -0.09386,1.27578 -0.0082,0.36202 -0.01225,0.72412 -0.0159,1.0862 -0.0329,0.27175 -0.03506,0.54818 -0.08053,0.81819 -0.03513,0.27908 -0.095,0.55245 -0.154466,0.82692 -0.05237,0.30768 -0.133636,0.6087 -0.200388,0.91336 -0.07403,0.25238 -0.136446,0.50736 -0.213505,0.75877 -0.04464,0.13923 -0.07475,0.28219 -0.122122,0.4205 0,0 2.83608,0.89712 2.83608,0.89712 v 0 c 0.04565,-0.14883 0.0889,-0.29778 0.130474,-0.44774 0.100303,-0.32862 0.185393,-0.66136 0.27369,-0.99337 0.06682,-0.30626 0.148249,-0.60926 0.201552,-0.91839 0.07547,-0.34757 0.145608,-0.69573 0.192563,-1.04854 0.05084,-0.39684 0.08546,-0.79624 0.105799,-1.19581 0.0038,-0.34663 0.0079,-0.69328 0.01627,-1.03984 0.0066,-0.24476 0.01476,-0.48946 0.03141,-0.73374 0.04492,-0.21426 0.09658,-0.42774 0.182375,-0.62995 0.09488,-0.22488 0.177863,-0.45592 0.298672,-0.66859 0.09301,-0.16378 0.174617,-0.33285 0.298315,-0.47686 0.122542,-0.13841 0.250849,-0.26871 0.395354,-0.38418 0.270512,-0.19947 0.553682,-0.38241 0.807037,-0.60477 0.279477,-0.2619 0.541832,-0.54422 0.753163,-0.86524 0.170561,-0.24342 0.32463,-0.49784 0.509556,-0.731 0.195389,-0.30823 0.376184,-0.62705 0.50546,-0.96949 0.129,-0.34881 0.230272,-0.70581 0.300299,-1.0714 0.05111,-0.29851 0.128654,-0.59323 0.147476,-0.89652 0.03,-0.47385 -0.0046,-0.94641 -0.182557,-1.39225 -0.223375,-0.50379 -0.515763,-0.96391 -0.966179,-1.29699 -0.354798,-0.24379 -0.732385,-0.45258 -1.148035,-0.5747 -0.344768,-0.11931 -0.694312,-0.22706 -1.050901,-0.30537 -0.383974,-0.0873 -0.772004,-0.15397 -1.161294,-0.21309 -0.306167,-0.0362 -0.612145,-0.0776 -0.913106,-0.14587 -0.279048,-0.0659 -0.555228,-0.14427 -0.819179,-0.25784 -0.19359,-0.0808 -0.389236,-0.1559 -0.571161,-0.26152 -0.184417,-0.12115 -0.349332,-0.27238 -0.507826,-0.42492 -0.115792,-0.10099 -0.213976,-0.22089 -0.307943,-0.34116 -0.112982,-0.18387 -0.228036,-0.36613 -0.316867,-0.5634 -0.06883,-0.17438 -0.140756,-0.34578 -0.150048,-0.53657 -0.03779,-0.26936 -0.0026,-0.54098 0.01175,-0.81087 0.02368,-0.32202 0.05073,-0.64399 0.09638,-0.96377 0.04093,-0.27438 0.08744,-0.54855 0.16482,-0.81542 0.08692,-0.28826 0.202361,-0.56522 0.311221,-0.84564 0.104092,-0.25238 0.246264,-0.47945 0.397904,-0.70639 0.192762,-0.28816 0.386803,-0.57572 0.610913,-0.84088 0.276852,-0.323 0.559572,-0.64095 0.832014,-0.96766 0.120528,-0.14446 0.250412,-0.28218 0.404053,-0.39196 0.120369,-0.0737 0.224462,-0.15088 0.367416,-0.18163 0.184901,-0.0428 0.36926,-0.082 0.5607,-0.0764 0.309192,0.0172 0.618384,0.0368 0.926242,0.071 0.273037,0.0318 0.545193,0.0708 0.814372,0.12727 0.393695,0.0743 0.792708,0.12366 1.194157,0.11932 0.408615,2.6e-4 0.817864,-0.009 1.220415,-0.0879 0.408278,-0.0721 0.815223,-0.15937 1.202846,-0.31012 0.35049,-0.14317 0.68375,-0.31708 1.00573,-0.51629 0.26936,-0.17528 0.53167,-0.36309 0.77865,-0.56891 0.309,-0.23938 0.61254,-0.48684 0.87239,-0.78069 0.22866,-0.27612 0.43952,-0.56515 0.6036,-0.88521 0.18362,-0.3501 0.34543,-0.71261 0.43824,-1.09865 0.10191,-0.43012 0.17912,-0.86778 0.16019,-1.31205 -0.0301,-0.53423 -0.10792,-1.06713 -0.35961,-1.54793 -0.19506,-0.36606 -0.41962,-0.7147 -0.71042,-1.01339 -0.14062,-0.16997 -0.29235,-0.33575 -0.40703,-0.52352 -0.0752,-0.12289 -0.13006,-0.25723 -0.18782,-0.38744 -0.0296,-0.10968 -0.0355,-0.18298 -0.006,-0.3092 0.0678,-0.24417 0.14568,-0.48644 0.26523,-0.71103 0.12532,-0.2307 0.23665,-0.4702 0.41652,-0.66575 0.15604,-0.1828 0.30195,-0.37619 0.49708,-0.52069 0.24647,-0.19487 0.50809,-0.37069 0.77217,-0.54055 0.24949,-0.16337 0.51267,-0.30073 0.77445,-0.44313 0.24462,-0.14707 0.51062,-0.25375 0.76058,-0.39107 0.34072,-0.15732 0.67715,-0.32283 1.0106,-0.49494 0.35228,-0.19459 0.69949,-0.39959 1.02377,-0.63885 0.22869,-0.17442 0.45831,-0.34825 0.68133,-0.52968 0.31085,-0.2142 0.60217,-0.45228 0.87358,-0.71505 0.25787,-0.26498 0.51371,-0.5355 0.72297,-0.84147 0.25999,-0.399 0.49839,-0.81408 0.59264,-1.28767 0.10263,-0.50043 0.16788,-1.01092 0.0534,-1.51669 -0.11221,-0.46859 -0.2678,-0.92618 -0.53725,-1.33053 -0.30127,-0.41764 -0.65926,-0.77909 -1.12709,-1.00974 -0.42224,-0.20498 -0.85888,-0.34084 -1.32785,-0.38595 -0.21507,-0.0394 -0.43038,-0.0829 -0.63598,-0.15916 -0.18741,-0.0736 -0.36293,-0.17067 -0.54506,-0.25576 -0.0821,-0.0409 -0.14475,-0.10329 -0.20492,-0.1676 -0.11615,-0.16507 -0.24037,-0.32081 -0.31066,-0.51286 -0.0774,-0.15601 -0.15525,-0.32239 -0.22804,-0.47122 -0.0376,-0.15867 -0.0752,-0.31653 -0.0762,-0.48052 0.0173,-0.20765 0.0631,-0.40974 0.13068,-0.60734 0.0853,-0.24258 0.20088,-0.47045 0.31438,-0.70083 0.11636,-0.22567 0.27376,-0.4215 0.43126,-0.6198 0.20803,-0.24536 0.43568,-0.47535 0.68026,-0.68416 0.19945,-0.17853 0.40752,-0.34673 0.6368,-0.48624 0.17937,-0.10731 0.36457,-0.20385 0.55593,-0.28782 0.25679,-0.10173 0.51053,-0.21025 0.76841,-0.30926 0.32604,-0.11652 0.64383,-0.2534 0.96326,-0.38659 0.29245,-0.13551 0.58941,-0.26263 0.86892,-0.42416 0.35875,-0.18713 0.70163,-0.40266 1.02898,-0.64063 0.30228,-0.23456 0.58791,-0.48895 0.84934,-0.76879 0.25459,-0.28173 0.50502,-0.57022 0.71153,-0.88979 0.18216,-0.30568 0.34945,-0.6207 0.4782,-0.95311 0.17309,-0.4176 0.30223,-0.85002 0.32147,-1.30499 0.013,-0.51153 -0.0328,-1.02168 -0.21345,-1.5052 -0.16871,-0.42376 -0.3734,-0.83185 -0.66453,-1.18657 -0.25804,-0.32341 -0.52101,-0.64428 -0.85332,-0.89606 -0.22765,-0.17431 -0.46093,-0.34157 -0.70184,-0.49707 -0.20112,-0.14489 -0.40186,-0.29028 -0.60437,-0.433 -0.15048,-0.11786 -0.31105,-0.22456 -0.4504,-0.35437 -0.17278,-0.18645 -0.34911,-0.36951 -0.52029,-0.55741 -0.13925,-0.16097 -0.29007,-0.31235 -0.39382,-0.50001 -0.14487,-0.21638 -0.28047,-0.43894 -0.42319,-0.65671 -0.12075,-0.21145 -0.24927,-0.41832 -0.35884,-0.63584 -0.12162,-0.25626 -0.25154,-0.50859 -0.38102,-0.76089 -0.1232,-0.25922 -0.25483,-0.51445 -0.38577,-0.76978 -0.0963,-0.20279 -0.24988,-0.50372 -0.32285,-0.65441 z" />
    <path
       style="fill:#0000ff;stroke-width:0.264583"
       id="path31"
       d="m 101.32282,161.57296 c 0.33371,0.11061 0.67133,0.20853 1.00671,0.31372 0.35032,0.10879 0.69713,0.2282 1.04109,0.35552 0.30238,0.10453 0.59699,0.23119 0.88817,0.36352 0.29899,0.13405 0.59184,0.28156 0.88459,0.42875 0.27114,0.16297 0.55833,0.29636 0.84137,0.43688 0.31548,0.16208 0.64915,0.28195 0.97478,0.42027 0.36655,0.16091 0.74995,0.27461 1.13802,0.36953 0.39269,0.0919 0.79255,0.14608 1.19279,0.19188 0.38322,0.0419 0.76799,0.0668 1.15282,0.088 0.42843,0.0337 0.85733,0.0186 1.28428,-0.0238 0.35612,-0.0346 0.70256,-0.12365 1.05167,-0.19719 0.33769,-0.0761 0.66586,-0.18491 0.99543,-0.28914 0.27215,-0.0711 0.54388,-0.14349 0.81563,-0.21642 0.28846,-0.0622 0.57096,-0.14787 0.85766,-0.21717 0.25867,-0.0605 0.52214,-0.0958 0.78567,-0.12685 0.29106,-0.0233 0.58314,-0.0684 0.87567,-0.0627 0.28171,-0.004 0.55954,0.0436 0.83824,0.0782 0.30491,0.0659 0.61216,0.11956 0.92055,0.16613 0.45061,0.0667 0.90368,0.0328 1.35146,-0.0335 0.41036,-0.0635 0.79782,-0.21091 1.17198,-0.38553 0.33481,-0.15445 0.63722,-0.3617 0.92502,-0.59004 0.32682,-0.25427 0.5694,-0.58631 0.80934,-0.91838 0.20662,-0.30078 0.39855,-0.61068 0.5646,-0.93565 0.15798,-0.28664 0.29652,-0.58381 0.42529,-0.88455 0.12398,-0.27157 0.25259,-0.541 0.3731,-0.81416 0.12777,-0.28551 0.23088,-0.5816 0.35284,-0.8693 0.0884,-0.18567 0.1328,-0.40499 0.24897,-0.57301 0.007,-0.0315 0.1789,-0.16024 0.2369,-0.20837 0.0864,-0.0756 0.1919,-0.11327 0.29858,-0.14994 0.17993,-0.0468 0.36417,-0.11322 0.55162,-0.11787 0.21333,-0.0143 0.42569,-0.0178 0.6385,-8e-5 0.25562,0.0269 0.50803,0.0825 0.7624,0.12221 0.32626,0.0621 0.6615,0.061 0.98845,0.11425 0.33306,0.0559 0.66783,0.0996 1.00353,0.1359 0.39496,0.0527 0.79277,0.0456 1.18985,0.0331 0.54227,0.015 1.04489,-0.1643 1.53064,-0.38461 0.42062,-0.19637 0.80742,-0.45048 1.18138,-0.7234 0.28532,-0.19402 0.53854,-0.43085 0.81953,-0.63027 0.2701,-0.20679 0.5572,-0.38791 0.82976,-0.59204 0.2442,-0.18845 0.48892,-0.37542 0.74037,-0.5542 0.13522,-0.094 0.28998,-0.14911 0.44551,-0.19875 0.18722,-0.0673 0.38007,-0.0857 0.57638,-0.099 0.23496,-0.011 0.47102,0.0168 0.70579,0.0318 0.37562,0.0274 0.751,0.0413 1.12737,0.0261 0.4967,-0.0205 0.9623,-0.17388 1.41468,-0.36738 0.37572,-0.1859 0.72281,-0.4206 1.06831,-0.65612 0.34193,-0.23898 0.64877,-0.52246 0.94821,-0.8116 0.21326,-0.18349 0.39279,-0.40534 0.61256,-0.58118 0.18152,-0.14123 0.33519,-0.32354 0.5352,-0.43985 0.22113,-0.14755 0.44158,-0.29813 0.67604,-0.42407 0.21367,-0.11 0.44399,-0.17936 0.67536,-0.2406 0.28639,-0.0725 0.57881,-0.11598 0.87138,-0.15426 0.38944,-0.037 0.77579,-0.0974 1.15867,-0.17688 0.49262,-0.0846 0.92561,-0.32994 1.34731,-0.58443 0.31648,-0.20919 0.62367,-0.43176 0.93307,-0.65112 0.28184,-0.19532 0.55775,-0.39929 0.82801,-0.61036 0.33847,-0.27858 0.66764,-0.56807 1.00518,-0.84776 0.29628,-0.24956 0.58274,-0.5103 0.87477,-0.7647 0.24714,-0.22027 0.48484,-0.45083 0.73009,-0.67309 0.22086,-0.1804 0.44074,-0.3623 0.65544,-0.55009 0.28291,-0.22911 0.54099,-0.48151 0.77437,-0.76061 0.34621,-0.43432 0.50741,-0.94369 0.54916,-1.49043 0.0192,-0.51189 -0.13784,-0.97908 -0.38694,-1.41958 -0.18788,-0.32487 -0.43231,-0.60739 -0.69296,-0.87501 -0.18244,-0.18791 -0.36631,-0.37461 -0.55357,-0.55778 -0.20459,-0.21407 -0.41765,-0.41893 -0.64176,-0.61248 -0.2363,-0.21343 -0.48926,-0.40744 -0.74134,-0.60164 -0.32002,-0.22599 -0.64031,-0.45214 -0.97085,-0.66254 -0.25634,-0.17567 -0.51896,-0.34187 -0.77612,-0.51625 -0.20448,-0.16143 -0.46006,-0.26554 -0.65224,-0.44138 -0.0121,-0.0451 -0.0306,-0.0902 -0.0482,-0.1348 0.0344,0.12431 2.6e-4,-0.30222 0.003,-0.33575 0.013,-0.25479 0.0673,-0.50526 0.1265,-0.75274 0.0504,-0.20844 0.10302,-0.42333 0.2045,-0.61404 0.0565,-0.0962 0.14023,-0.16773 0.22155,-0.24279 0.1921,-0.16194 0.40416,-0.29687 0.61464,-0.43331 0.21677,-0.12047 0.44092,-0.22958 0.66782,-0.33005 0.20514,-0.0875 0.42228,-0.13945 0.63969,-0.18562 0.24326,-0.0503 0.48795,-0.0856 0.73613,-0.0904 0.252,-0.0139 0.5014,0.0226 0.75153,0.0476 0.23108,0.0432 0.46185,0.0827 0.69026,0.13819 0.29134,0.0591 0.57514,0.14645 0.86353,0.21787 0.28657,0.0827 0.57623,0.15205 0.86205,0.23705 0.37257,0.11374 0.7546,0.18969 1.13846,0.25304 0.38393,0.0606 0.7711,0.0963 1.1584,0.12667 0.42836,0.043 0.85809,0.0335 1.28614,-0.004 0.55005,-0.0336 1.03881,-0.26857 1.49819,-0.55434 0.36078,-0.24366 0.68274,-0.53782 0.98351,-0.85108 0.25525,-0.28318 0.48238,-0.58876 0.70373,-0.89857 0.16089,-0.25152 0.33244,-0.49558 0.50315,-0.74044 0.072,-0.12028 0.16217,-0.21088 0.28298,-0.27787 0.14624,-0.0772 0.30535,-0.12404 0.46409,-0.16762 0.23498,-0.0502 0.47284,-0.11664 0.71424,-0.12402 0.1861,-0.004 0.38073,-0.0108 0.56329,0.0336 0.31254,0.064 0.62773,0.11247 0.94403,0.15324 0.36493,0.0451 0.73177,0.0711 1.09867,0.0933 0.45825,0.0408 0.91355,-0.006 1.36253,-0.0958 0.36491,-0.0711 0.70064,-0.22907 1.04029,-0.37265 0.34791,-0.14992 0.6735,-0.34165 0.98852,-0.55073 0.30533,-0.19634 0.59869,-0.41039 0.89183,-0.62429 0.28892,-0.19826 0.57161,-0.40565 0.84683,-0.62252 0.25795,-0.20007 0.50838,-0.40997 0.75275,-0.6264 0.19533,-0.15726 0.39146,-0.31409 0.58924,-0.4685 0.21161,-0.18078 0.43009,-0.35319 0.65223,-0.52077 0.24568,-0.19019 0.47898,-0.39525 0.71726,-0.59437 0.20956,-0.15368 0.39746,-0.33315 0.60187,-0.49344 0.26738,-0.17866 0.50086,-0.40105 0.74166,-0.61255 0.19941,-0.16484 0.41224,-0.312 0.61838,-0.46844 0.25687,-0.19024 0.50554,-0.39158 0.74804,-0.59979 0.20411,-0.18203 0.41639,-0.35388 0.62773,-0.52729 0.20028,-0.16638 0.40523,-0.32573 0.61637,-0.4781 0.18219,-0.15836 0.38891,-0.27939 0.5948,-0.4032 0.20395,-0.13376 0.11356,-0.075 0.27086,-0.17669 0,0 -1.61854,-2.49771 -1.61854,-2.49771 v 0 c -0.15375,0.0998 -0.0897,0.0561 -0.19368,0.12872 -0.27713,0.16852 -0.55752,0.33495 -0.80639,0.54442 -0.25794,0.18917 -0.51071,0.38451 -0.75716,0.58836 -0.22946,0.19141 -0.46404,0.37654 -0.68678,0.57594 -0.19254,0.17262 -0.39969,0.32895 -0.60556,0.48506 -0.2579,0.20216 -0.53333,0.38193 -0.77922,0.59959 -0.1939,0.17221 -0.38026,0.35339 -0.59931,0.49453 -0.23566,0.18273 -0.45226,0.3856 -0.69055,0.5646 -0.19893,0.16844 -0.39514,0.33987 -0.59962,0.50163 -0.23436,0.17888 -0.46971,0.35721 -0.69259,0.55037 -0.24667,0.19497 -0.4947,0.38866 -0.73468,0.59181 -0.19872,0.18274 -0.41091,0.35093 -0.62221,0.51869 -0.23651,0.19412 -0.48956,0.36758 -0.73957,0.54359 -0.25742,0.18665 -0.51167,0.37829 -0.78182,0.54639 -0.16586,0.10837 -0.33269,0.21149 -0.5145,0.29154 -0.1714,0.073 -0.33716,0.16261 -0.51827,0.20717 -0.16614,0.0669 -0.36639,0.0368 -0.53935,0.0358 -0.30021,-0.0185 -0.60042,-0.0396 -0.89902,-0.0766 -0.28577,-0.0371 -0.56939,-0.0863 -0.85214,-0.14194 -0.42555,-0.0618 -0.85525,-0.0962 -1.28514,-0.058 -0.4305,0.0424 -0.85809,0.1128 -1.27607,0.22634 -0.45875,0.13212 -0.90973,0.2953 -1.31159,0.55895 -0.41099,0.28533 -0.78177,0.61707 -1.05992,1.03773 -0.16867,0.23925 -0.33688,0.47909 -0.49305,0.72671 -0.13955,0.19859 -0.2825,0.3942 -0.43974,0.57914 -0.12982,0.14412 -0.27796,0.27113 -0.43039,0.39028 -0.0397,0.03 -0.0884,0.0471 -0.12689,0.0787 -0.0227,0.0187 0.0614,-0.0212 0.0878,-0.008 0.0468,0.023 -0.37034,0.0159 -0.15364,0.0285 -0.24774,0.0392 -0.50245,0.0174 -0.75096,8e-4 -0.30407,-0.024 -0.60813,-0.0512 -0.90968,-0.0981 -0.26138,-0.0426 -0.52163,-0.0932 -0.77512,-0.17124 -0.32972,-0.0974 -0.66355,-0.17868 -0.99383,-0.2742 -0.29366,-0.0722 -0.58282,-0.16199 -0.87942,-0.22221 -0.35934,-0.0862 -0.72304,-0.15281 -1.08893,-0.20458 -0.37935,-0.0386 -0.75929,-0.0794 -1.14134,-0.0603 -0.42811,0.0157 -0.85277,0.0678 -1.27212,0.15681 -0.421,0.0919 -0.83872,0.20313 -1.23335,0.37958 -0.36591,0.16641 -0.73024,0.34128 -1.07224,0.55311 -0.35497,0.23326 -0.71053,0.46816 -1.02553,0.75498 -0.35946,0.34052 -0.68096,0.71907 -0.89096,1.17225 -0.16591,0.3767 -0.30653,0.76443 -0.39066,1.16844 -0.104,0.44608 -0.18559,0.8991 -0.20195,1.3579 -0.008,0.56718 0.043,1.13012 0.26384,1.65968 0.22656,0.47572 0.51155,0.91601 0.93273,1.24435 0.26532,0.19826 0.54538,0.37443 0.82008,0.55933 0.28075,0.18516 0.56196,0.36939 0.84226,0.55533 0.2558,0.15761 0.49778,0.33679 0.74359,0.50926 0.21313,0.16213 0.42416,0.32763 0.62242,0.50785 0.18002,0.1458 0.33129,0.32375 0.49761,0.48426 0.17591,0.16698 0.3418,0.34456 0.51172,0.51751 0.0971,0.0905 0.13971,0.13865 0.21397,0.24489 0.0986,0.17387 -0.0433,-0.13537 0.003,-0.21093 0.0226,-0.0752 0.0405,-0.17118 0.11227,-0.21649 -0.0927,0.17032 -0.30436,0.25869 -0.42979,0.40123 -0.22418,0.2033 -0.46595,0.38645 -0.69314,0.58637 -0.22839,0.21075 -0.45295,0.42555 -0.6825,0.63505 -0.27088,0.23986 -0.53815,0.48369 -0.81263,0.7195 -0.3092,0.25959 -0.61326,0.52541 -0.92828,0.77799 -0.24033,0.18553 -0.4862,0.36402 -0.73463,0.53841 -0.24443,0.17741 -0.49268,0.34941 -0.73791,0.52565 -0.19835,0.1196 -0.2554,0.18729 -0.44963,0.22425 -0.29784,0.0752 -0.60661,0.0984 -0.91048,0.1364 -0.42325,0.0562 -0.84576,0.12272 -1.25917,0.23156 -0.45649,0.12519 -0.90693,0.27555 -1.32514,0.50096 -0.30582,0.16873 -0.60482,0.35074 -0.89254,0.5489 -0.29245,0.19881 -0.56354,0.42258 -0.82541,0.66008 -0.2614,0.228 -0.50319,0.47585 -0.75474,0.71448 -0.174,0.17285 -0.35532,0.3387 -0.55178,0.4859 -0.20599,0.14134 -0.41013,0.28543 -0.62872,0.4069 -0.0914,0.0355 -0.19659,0.0893 -0.30836,0.0996 -0.26727,0.0139 -0.53341,-0.005 -0.80037,-0.023 -0.37183,-0.025 -0.745,-0.061 -1.11769,-0.0303 -0.44201,0.0337 -0.87932,0.10265 -1.30084,0.24495 -0.43636,0.14846 -0.86116,0.3304 -1.23693,0.60214 -0.27165,0.19597 -0.53819,0.39828 -0.80284,0.60341 -0.25523,0.19892 -0.53827,0.3569 -0.78959,0.56107 -0.28059,0.20828 -0.54487,0.43701 -0.8284,0.64139 -0.20422,0.15489 -0.41849,0.29146 -0.64735,0.40731 -0.25254,0.11555 -0.10957,0.10827 -0.39253,0.1167 -0.25949,0.008 -0.51898,0.0229 -0.77696,-0.0164 -0.30928,-0.0337 -0.61712,-0.0774 -0.9242,-0.12731 -0.30906,-0.0389 -0.62004,-0.0601 -0.92817,-0.10682 -0.33211,-0.0523 -0.6613,-0.12753 -0.99747,-0.14988 -0.39793,-0.0286 -0.79692,-0.0262 -1.19445,0.0105 -0.42819,0.0551 -0.85285,0.13976 -1.26042,0.28564 -0.41704,0.15927 -0.81859,0.3557 -1.16121,0.64723 -0.33403,0.27776 -0.64273,0.57714 -0.87537,0.948 -0.18615,0.32099 -0.33866,0.65596 -0.46482,1.00509 -0.10565,0.26549 -0.20615,0.53277 -0.32087,0.79461 -0.12287,0.28415 -0.26012,0.56198 -0.38539,0.84511 -0.10229,0.24474 -0.22365,0.4812 -0.34903,0.71478 -0.0878,0.18752 -0.21053,0.35567 -0.32019,0.53056 -0.0782,0.10918 -0.14886,0.22714 -0.24346,0.32198 -0.11543,0.0915 -0.23077,0.18738 -0.37893,0.24663 -0.10164,0.0707 -0.23624,0.0978 -0.35391,0.12651 -0.13472,0.0393 -0.28394,0.0313 -0.42236,0.031 -0.33392,-0.0502 -0.66386,-0.12096 -0.99696,-0.17599 -0.40621,-0.0506 -0.81267,-0.10646 -1.22321,-0.0995 -0.4029,0.006 -0.80462,0.0371 -1.20514,0.0816 -0.38262,0.0451 -0.76473,0.0987 -1.13992,0.18812 -0.30981,0.0755 -0.61529,0.16636 -0.92691,0.23441 -0.31429,0.0844 -0.62884,0.16635 -0.94255,0.25274 -0.23605,0.0748 -0.46961,0.15506 -0.71003,0.21532 -0.25731,0.0542 -0.5113,0.12396 -0.77302,0.15343 -0.25905,0.0423 -0.52521,0.0251 -0.78581,0.0128 -0.32717,-0.0182 -0.65431,-0.039 -0.98015,-0.0744 -0.27858,-0.0317 -0.55718,-0.0675 -0.83096,-0.12936 -0.24049,-0.0571 -0.47724,-0.12763 -0.70334,-0.229 -0.26507,-0.10764 -0.53307,-0.20717 -0.78852,-0.33729 -0.27936,-0.13792 -0.56085,-0.27101 -0.8299,-0.42877 -0.32733,-0.16338 -0.65577,-0.32506 -0.98909,-0.47588 -0.35747,-0.16199 -0.71848,-0.31791 -1.09007,-0.44497 -0.38804,-0.14195 -0.77951,-0.27445 -1.17323,-0.39975 -0.28462,-0.0902 -0.57181,-0.17342 -0.85058,-0.2809 z" />
    <path
       style="fill:#0000ff;stroke-width:0.264583"
       id="path32"
       d="m 152.38095,133.54581 c -0.009,-0.15217 -0.008,-0.30479 -0.009,-0.45718 -0.002,-0.2011 -0.001,-0.40222 -0.003,-0.60333 -0.008,-0.16818 0.01,-0.33508 0.0227,-0.50249 0.007,-0.16655 0.0322,-0.33096 0.052,-0.49635 0.0152,-0.17968 0.0457,-0.35725 0.0714,-0.53561 0.02,-0.18375 0.0535,-0.3654 0.082,-0.54792 0.0261,-0.17071 0.0642,-0.33934 0.0935,-0.50971 0.0235,-0.13322 0.0602,-0.26252 0.0941,-0.39325 0.0165,-0.0609 0.0269,-0.12419 0.0527,-0.18174 0.019,-0.0423 0.0271,-0.0819 0.0178,-0.0408 0.0423,-0.0939 0.0311,-0.0595 0.11138,-0.18122 0.0701,-0.0975 0.14632,-0.19054 0.22329,-0.28295 0.0714,-0.0778 0.14916,-0.14918 0.22684,-0.22074 0.074,-0.0637 0.14719,-0.12692 0.22974,-0.17926 0.12075,-0.0916 0.24925,-0.17066 0.37768,-0.25045 0.15205,-0.0838 0.30325,-0.16899 0.45184,-0.25885 0.22718,-0.12997 0.4281,-0.29745 0.61781,-0.47632 0.17577,-0.17158 0.33543,-0.35896 0.48574,-0.55294 0.12451,-0.15645 0.23711,-0.32233 0.34374,-0.49134 0.11626,-0.20264 0.21817,-0.41329 0.3075,-0.62907 0.073,-0.18751 0.14287,-0.37549 0.20053,-0.56845 0.0657,-0.22849 0.10485,-0.46313 0.137,-0.69832 0.0321,-0.23636 0.0472,-0.4743 0.0544,-0.71256 -10e-4,-0.22637 -0.009,-0.45271 -0.0252,-0.67848 -0.0186,-0.18121 -0.0378,-0.36233 -0.0524,-0.54393 -0.0136,-0.20229 -0.045,-0.4028 -0.068,-0.60414 -0.0246,-0.21899 -0.0585,-0.43712 -0.0968,-0.65412 -0.0396,-0.23054 -0.0949,-0.45773 -0.15766,-0.68292 -0.0609,-0.20611 -0.13964,-0.40666 -0.22306,-0.60457 -0.063,-0.15328 -0.13031,-0.30486 -0.20009,-0.45517 -0.0563,-0.12584 -0.11639,-0.24996 -0.17243,-0.37595 -0.0372,-0.10052 -0.0779,-0.19974 -0.10854,-0.30256 -0.0223,-0.0629 -0.035,-0.1646 -0.0351,-0.18854 5.3e-4,-0.0804 0.008,-0.0174 0.007,-0.003 0.0303,-0.10123 -0.004,0.008 -0.001,0.009 0.008,0.002 0.03,-0.0798 0.009,-0.0127 -0.006,0.012 -0.0291,0.0456 -0.0193,0.0361 0.016,-0.0156 0.0251,-0.0369 0.0384,-0.0548 0.007,-0.01 -0.0283,0.0391 -0.0194,0.0309 0.0211,-0.0192 0.0392,-0.0415 0.0588,-0.0622 -0.0818,0.066 0.11973,-0.0935 0.15644,-0.11945 -0.0752,0.0558 0.099,-0.052 0.11575,-0.0603 0.0705,-0.0331 0.13607,-0.0762 0.212,-0.0949 0.14048,-0.0541 0.28534,-0.0931 0.42933,-0.13605 0.13644,-0.0413 0.27281,-0.0832 0.41007,-0.12176 0.18573,-0.0485 0.36906,-0.10607 0.55016,-0.1696 0.22341,-0.0836 0.43937,-0.18226 0.64606,-0.30147 0.21179,-0.12579 0.40662,-0.27494 0.5913,-0.4372 0.13702,-0.12056 0.25968,-0.25501 0.38181,-0.39017 0.11413,-0.12238 0.21747,-0.25367 0.32394,-0.38252 0.14359,-0.18194 0.27088,-0.37505 0.38434,-0.57693 0.13619,-0.25258 0.21951,-0.52689 0.2854,-0.80472 0.0706,-0.28716 0.0912,-0.58022 0.0885,-0.87484 -0.007,-0.3028 -0.0786,-0.5979 -0.1573,-0.88863 -0.0677,-0.22841 -0.14715,-0.4532 -0.23689,-0.67381 -0.0985,-0.23715 -0.21862,-0.4634 -0.3546,-0.68097 -0.14814,-0.23053 -0.32562,-0.43859 -0.51337,-0.63731 -0.18089,-0.18718 -0.38586,-0.3489 -0.59711,-0.50007 -0.15798,-0.12187 -0.33233,-0.21954 -0.50511,-0.31835 -0.1915,-0.10163 -0.38699,-0.19548 -0.58756,-0.2778 -0.17868,-0.0699 -0.39508,-0.1541 -0.62281,-0.22345 -0.24289,-0.0683 -0.48751,-0.1299 -0.73419,-0.18294 -0.21794,-0.0403 -0.43587,-0.0807 -0.65419,-0.11902 -0.22283,-0.0343 -0.44449,-0.0753 -0.66703,-0.11148 -0.20785,-0.0344 -0.41426,-0.0765 -0.62244,-0.10993 -0.20249,-0.0253 -0.403,-0.0627 -0.60441,-0.0951 -0.1938,-0.0246 -0.38553,-0.0614 -0.5782,-0.0932 -0.15162,-0.0264 -0.30437,-0.053 -0.45407,-0.0893 -0.15522,-0.0397 -0.311,-0.0789 -0.46517,-0.12278 -0.16305,-0.0493 -0.33591,-0.0752 -0.49464,-0.1387 0.13975,0.0289 0.25558,0.13151 0.3503,0.23316 0.007,-0.003 -0.0194,-0.0671 -0.0273,-0.0923 -0.0348,-0.12905 -0.0629,-0.25972 -0.0961,-0.38924 -0.0332,-0.13012 -0.0546,-0.26274 -0.0731,-0.39563 -0.0202,-0.15073 -0.0324,-0.30235 -0.0432,-0.45399 -0.0115,-0.16857 -0.0184,-0.33739 -0.0245,-0.50623 -0.0114,-0.12983 0.002,-0.25801 0.0106,-0.38759 0.002,-0.12089 0.0272,-0.19884 0.0499,-0.31604 0.0224,-0.0846 0.0526,-0.16073 0.0825,-0.2457 0.0341,-0.0895 0.0506,-0.11212 0.10183,-0.20263 -0.10365,0.15879 0.069,-0.0628 0.0789,-0.0716 0.0661,-0.0633 0.14658,-0.14261 0.22529,-0.21114 0.0921,-0.092 0.0908,-0.0748 0.25729,-0.19948 0.10845,-0.0727 0.21472,-0.14925 0.32171,-0.2245 0.091,-0.0616 0.1841,-0.11953 0.27803,-0.17686 0.1038,-0.0611 0.20909,-0.11987 0.31427,-0.17886 0.11398,-0.0617 0.22867,-0.12223 0.343,-0.18346 0.10124,-0.0585 0.20781,-0.10447 0.31348,-0.15357 0.13397,-0.0608 0.26772,-0.12209 0.40059,-0.18526 0.0982,-0.0387 0.18722,-0.1039 0.2881,-0.13485 0.18219,-0.0704 0.34246,-0.18485 0.51747,-0.26903 0.11487,-0.0601 0.23048,-0.12007 0.34955,-0.17157 0.11539,-0.0663 0.23888,-0.10974 0.36189,-0.15807 0.15486,-0.0586 0.3105,-0.11502 0.46419,-0.17689 0.21753,-0.0892 0.42284,-0.20316 0.62418,-0.32368 0.20515,-0.12545 0.39643,-0.26963 0.57805,-0.42674 0.17596,-0.15241 0.32716,-0.33015 0.46937,-0.51356 0.1311,-0.17721 0.13612,-0.18693 0.2278,-0.30418 0.14822,-0.19047 0.2726,-0.39835 0.38967,-0.60898 0.0666,-0.10135 0.11922,-0.21243 0.18849,-0.31217 0.0447,-0.0816 0.099,-0.15227 0.14995,-0.22229 0.0657,-0.0388 0.10395,-0.11192 0.16036,-0.16327 0.099,-0.10634 0.13521,-0.12709 0.25792,-0.23558 0.0511,-0.0361 0.1631,-0.12764 0.24244,-0.18801 -0.0147,0.0114 -0.0607,0.0426 -0.044,0.0343 0.0865,-0.0435 0.17141,-0.10634 0.25534,-0.15467 0.12947,-0.0836 0.26271,-0.16047 0.39501,-0.23926 0.087,-0.04044 0.16387,-0.109759 0.25573,-0.138453 0.13091,-0.06031 0.25793,-0.129831 0.39048,-0.186503 0.0884,-0.03075 0.16924,-0.08033 0.25965,-0.10546 0.16191,-0.03851 0.32086,-0.0881 0.47844,-0.141401 0.089,-0.03205 0.18137,-0.05205 0.2742,-0.06906 0.16394,-0.02246 0.32546,-0.05857 0.48802,-0.08883 0.0194,-0.0033 0.0387,-0.0065 0.0581,-0.0098 0,0 -0.49863,-2.929551 -0.49863,-2.929551 v 0 c -0.0352,0.006 -0.0703,0.01201 -0.10545,0.01802 -0.16474,0.03086 -0.32769,0.0682 -0.4939,0.09059 -0.22974,0.04397 -0.45793,0.09676 -0.67904,0.174168 -0.14429,0.04939 -0.29358,0.0845 -0.44098,0.127362 -0.19266,0.06399 -0.37952,0.140684 -0.56497,0.222806 -0.13763,0.06299 -0.27364,0.129278 -0.40941,0.196059 -0.18683,0.08816 -0.36727,0.187774 -0.54571,0.29175 -0.11775,0.07368 -0.24355,0.13588 -0.35693,0.21598 -0.18465,0.107921 -0.36978,0.215423 -0.54277,0.341815 -0.13548,0.106103 -0.27251,0.210629 -0.40318,0.322768 -0.11745,0.114099 -0.25466,0.20837 -0.36126,0.334026 -0.14979,0.150182 -0.29872,0.302223 -0.43092,0.468405 -0.11459,0.153318 -0.22546,0.309721 -0.3225,0.474922 -0.0898,0.148894 -0.17986,0.297661 -0.26576,0.448907 -0.0311,0.0667 -0.0713,0.12412 -0.10558,0.17959 -0.10665,0.13247 -0.1883,0.24797 -0.28314,0.37187 0.005,-0.005 0.009,-0.0115 0.0148,-0.0153 0.004,-0.002 -0.005,0.008 -0.008,0.0109 -0.0196,0.0222 -0.0412,0.0428 -0.0599,0.0658 -0.001,0.001 0.13152,-0.12094 -0.0327,0.0313 0.0107,-0.008 0.021,-0.0162 0.0321,-0.0235 0.0498,-0.0328 -0.19183,0.14175 -0.14395,0.10621 -0.0694,0.0419 -0.13057,0.0825 -0.2043,0.11794 -0.15318,0.0621 -0.30994,0.11392 -0.46417,0.17365 -0.1571,0.0722 -0.32774,0.11756 -0.4768,0.2081 -0.16606,0.0763 -0.33027,0.15668 -0.49301,0.2398 -0.005,0.003 -0.47289,0.25083 -0.26276,0.15082 -0.16339,0.0676 -0.32153,0.1445 -0.48101,0.22034 -0.12305,0.0567 -0.24535,0.11568 -0.36967,0.17049 -0.14325,0.08 -0.3017,0.13505 -0.4434,0.219 -0.13219,0.0711 -0.26433,0.14225 -0.39671,0.21311 -0.13955,0.0789 -0.27883,0.15821 -0.41695,0.2397 -0.14778,0.0919 -0.29459,0.18508 -0.43803,0.28365 -0.13255,0.0948 -0.26653,0.18762 -0.39889,0.28291 -0.1495,0.12345 -0.32276,0.21926 -0.45529,0.36343 -0.14421,0.13252 -0.28816,0.26585 -0.42323,0.40778 -0.17291,0.19335 -0.34225,0.39205 -0.47247,0.61759 -0.1108,0.19703 -0.21449,0.39863 -0.29135,0.6117 -0.0844,0.23333 -0.16295,0.46934 -0.21353,0.71269 -0.0492,0.23491 -0.093,0.47141 -0.10249,0.71187 -0.0144,0.22716 -0.0261,0.45463 -0.0122,0.6822 0.007,0.20397 0.016,0.40793 0.0301,0.61156 0.0159,0.22016 0.0347,0.4402 0.065,0.6589 0.0338,0.23516 0.074,0.46948 0.13178,0.70009 0.0545,0.22169 0.10337,0.44528 0.17852,0.66129 0.1125,0.30902 0.2484,0.60961 0.44279,0.87696 0.29455,0.37113 0.65171,0.66784 1.11102,0.81101 0.20509,0.0641 0.41201,0.1218 0.62003,0.17562 0.20229,0.0557 0.40511,0.11028 0.60889,0.16017 0.20802,0.0457 0.41718,0.0879 0.62767,0.12044 0.19672,0.0318 0.39246,0.0696 0.59027,0.0942 0.20174,0.0316 0.40257,0.0691 0.60533,0.0939 0.20581,0.0322 0.40925,0.0776 0.61557,0.10663 0.20558,0.0329 0.40974,0.0738 0.61565,0.10466 0.1878,0.0348 0.37559,0.0692 0.56389,0.10112 0.16587,0.0342 0.32946,0.0768 0.49224,0.12347 0.12765,0.0371 0.24573,0.0975 0.37032,0.14337 0.0792,0.0262 0.14896,0.0754 0.22699,0.1041 0.0979,0.0548 0.18483,0.0989 0.27401,0.1708 0.0638,0.0427 0.10808,0.076 0.15784,0.12472 0.0685,0.0627 0.0834,0.0867 0.14195,0.159 0.054,0.0818 0.0942,0.17044 0.13312,0.26033 0.0425,0.10045 0.0779,0.21819 0.11377,0.32666 0.0464,0.0989 0.0277,0.12417 0.0428,0.15788 0.008,-0.0586 0.003,0.0616 -0.0144,0.11458 -0.001,0.006 -0.0285,0.0964 -0.004,0.0574 0.0253,-0.0308 -0.0736,0.11193 -0.0872,0.13099 -0.0687,0.0861 -0.14063,0.17766 -0.22939,0.26854 -0.0507,0.0572 -0.0814,0.0991 -0.17791,0.18294 0.13542,-0.10294 -0.13581,0.10179 -0.0643,0.0502 -0.0104,0.006 0.0157,-0.0131 -0.15647,0.0745 -0.004,0.002 0.009,-0.002 0.0133,-0.002 -0.11978,0.0425 -0.24088,0.0825 -0.3648,0.11267 -0.16352,0.0459 -0.32678,0.0929 -0.48912,0.14277 -0.13563,0.0613 -0.2966,0.0678 -0.43073,0.13664 -0.20386,0.065 -0.40591,0.13845 -0.5939,0.242 -0.21678,0.10493 -0.42652,0.22419 -0.62349,0.36322 -0.17535,0.13167 -0.34733,0.26784 -0.50341,0.42241 -0.19009,0.19759 -0.36885,0.40587 -0.50926,0.64263 -0.14841,0.26352 -0.27297,0.54041 -0.33657,0.83783 -0.0616,0.30283 -0.10139,0.6097 -0.0684,0.91927 0.0268,0.27569 0.0771,0.54805 0.15878,0.8131 0.0665,0.21156 0.14152,0.42047 0.22648,0.62535 0.0632,0.14338 0.12994,0.28499 0.19428,0.4276 0.0554,0.11888 0.1104,0.23797 0.159,0.3598 0.0421,0.0991 0.0839,0.19577 0.11195,0.28459 0.0546,0.11461 0.0526,0.25623 0.0881,0.37639 0.0309,0.1518 0.0483,0.30693 0.0676,0.4605 0.0193,0.16757 0.0454,0.3345 0.0577,0.50271 0.0147,0.18288 0.0321,0.36549 0.0521,0.54786 0.0203,0.12961 0.003,0.26447 0.016,0.39498 0.0252,0.11164 -0.0348,0.2411 -0.03,0.35427 -0.0118,0.0877 -0.0244,0.17561 -0.0461,0.26156 -0.0267,0.0995 -0.0717,0.19244 -0.10423,0.28996 -0.0162,0.0497 -0.0872,0.17095 -0.0825,0.18405 -0.0405,0.0965 -0.12871,0.17381 -0.18431,0.26107 -0.0462,0.0629 -0.1002,0.12116 -0.15171,0.18029 -0.0174,0.0164 -0.0402,0.0285 -0.0522,0.0492 -0.009,0.0151 0.0551,-0.0428 0.0419,-0.0314 -0.15402,0.13291 0.0654,-0.0469 -0.1345,0.0975 -0.14698,0.10433 -0.32018,0.16834 -0.46965,0.26903 -0.15565,0.10131 -0.31702,0.19432 -0.46451,0.3079 -0.19875,0.13708 -0.38923,0.28441 -0.56767,0.4473 -0.17681,0.16179 -0.34884,0.32971 -0.50396,0.51268 -0.14193,0.17178 -0.28185,0.34498 -0.40862,0.52847 -0.13443,0.19951 -0.26695,0.40164 -0.35895,0.62508 -0.0941,0.22344 -0.17749,0.45145 -0.22923,0.68896 -0.0539,0.21049 -0.10604,0.42132 -0.14478,0.63526 -0.0311,0.1847 -0.0737,0.36737 -0.0982,0.55317 -0.03,0.19427 -0.0656,0.38771 -0.0872,0.5832 -0.0285,0.20031 -0.062,0.39998 -0.0801,0.60162 -0.0254,0.21025 -0.0556,0.42007 -0.0646,0.63191 -0.0173,0.24013 -0.0332,0.48041 -0.0276,0.72135 -10e-4,0.2011 -5.3e-4,0.40222 -0.003,0.60333 -0.001,0.15238 -7.9e-4,0.30501 -0.009,0.45717 z" />
    <path
       style="fill:#0000ff;stroke-width:0.264583"
       id="path33"
       d="m 188.00197,189.9015 c -0.19226,-0.0671 -0.38222,-0.13964 -0.57124,-0.21542 -0.23504,-0.0883 -0.47116,-0.17379 -0.70813,-0.25686 -0.24386,-0.0761 -0.48988,-0.14459 -0.73556,-0.21462 -0.28739,-0.0816 -0.58176,-0.13297 -0.87702,-0.17573 -0.28057,-0.0388 -0.56296,-0.0617 -0.84543,-0.0811 -0.27189,-0.0179 -0.54418,-0.0286 -0.81648,-0.0377 -0.30278,-0.0129 -0.60512,-0.0164 -0.9078,-0.001 -0.36002,0.014 -0.71406,0.0816 -1.06411,0.16248 -0.31371,0.0706 -0.61946,0.16753 -0.91991,0.28127 -0.26841,0.10309 -0.52445,0.23346 -0.78159,0.36111 -0.2257,0.12099 -0.45698,0.23057 -0.6866,0.34366 -0.21263,0.0994 -0.4319,0.18337 -0.64837,0.27378 -0.2096,0.0851 -0.41993,0.16891 -0.63197,0.24783 -0.21277,0.0805 -0.43018,0.14675 -0.64591,0.21851 -0.16792,0.063 -0.34075,0.10929 -0.51608,0.14586 -0.19009,0.0379 -0.38275,0.0601 -0.57542,0.0798 -0.17618,0.0263 -0.35284,0.0145 -0.52996,0.009 -0.15052,-0.0172 -0.29869,-0.0472 -0.44763,-0.0751 -0.16381,-0.0398 -0.32304,-0.0929 -0.48415,-0.14223 -0.14742,-0.0638 -0.30017,-0.11616 -0.44665,-0.18313 -0.17074,-0.0643 -0.33425,-0.14195 -0.49623,-0.22476 -0.18642,-0.10916 -0.37707,-0.21083 -0.56494,-0.31741 -0.19659,-0.10756 -0.39321,-0.21582 -0.57826,-0.34246 -0.20047,-0.13916 -0.405,-0.27351 -0.60226,-0.41727 -0.22985,-0.1639 -0.46324,-0.32202 -0.70003,-0.47567 -0.28478,-0.18024 -0.5688,-0.36091 -0.86179,-0.52761 -0.28952,-0.1591 -0.58932,-0.29742 -0.88223,-0.44977 -0.3373,-0.18022 -0.69409,-0.3168 -1.05769,-0.43285 -0.35306,-0.10918 -0.71538,-0.18094 -1.08139,-0.22808 -0.35299,-0.0407 -0.70726,-0.0326 -1.06114,-0.0136 -0.40021,0.0374 -0.79245,0.128 -1.17885,0.23569 -0.33877,0.0898 -0.6624,0.22542 -0.98584,0.35833 -0.28954,0.12377 -0.57588,0.2551 -0.85948,0.39188 -0.27061,0.13078 -0.53887,0.26655 -0.80243,0.41103 -0.29654,0.17357 -0.58478,0.36087 -0.87637,0.54259 -0.26297,0.14964 -0.51215,0.32174 -0.76317,0.49018 -0.275,0.1892 -0.53091,0.405 -0.78957,0.61574 -0.23115,0.1898 -0.47461,0.36434 -0.71359,0.54427 -0.23121,0.1781 -0.46578,0.35157 -0.70308,0.52146 -0.28455,0.1808 -0.55079,0.38739 -0.82252,0.58629 -0.27564,0.20889 -0.55199,0.41696 -0.81916,0.63663 -0.197,0.15433 -0.39403,0.30879 -0.5922,0.4617 -0.20846,0.17054 -0.41004,0.3492 -0.61353,0.52561 -0.18769,0.15885 -0.37795,0.31334 -0.5716,0.4647 -0.16078,0.12133 -0.33077,0.22924 -0.49872,0.34015 -0.14091,0.0917 -0.29705,0.15734 -0.44911,0.22851 -0.22848,0.0995 -0.45836,0.19594 -0.68566,0.2982 -0.18579,0.0815 -0.37277,0.16106 -0.56185,0.23476 -0.21084,0.0863 -0.41581,0.18628 -0.62582,0.2744 -0.19183,0.0745 -0.38021,0.15778 -0.57007,0.23719 -0.2101,0.09 -0.41982,0.18139 -0.63225,0.2658 -0.26566,0.10754 -0.51816,0.24211 -0.76619,0.38483 -0.31461,0.1824 -0.58658,0.42242 -0.83977,0.681 -0.24154,0.25728 -0.44287,0.54726 -0.64151,0.8378 -0.16304,0.23526 -0.29989,0.48556 -0.4412,0.73385 -0.12875,0.23858 -0.24358,0.48489 -0.35299,0.73292 -0.13173,0.30307 -0.21478,0.62294 -0.28285,0.9453 -0.0585,0.29046 -0.0928,0.58489 -0.12176,0.87952 -0.0315,0.25182 -0.0263,0.50726 -0.0556,0.75905 -0.0244,0.20401 -0.04,0.40945 -0.0868,0.60992 -0.0341,0.16554 -0.0914,0.32555 -0.15863,0.48041 -0.0976,0.1563 -0.2115,0.30134 -0.32177,0.44878 -0.11279,0.13123 -0.22105,0.27091 -0.35458,0.38216 -0.14382,0.16435 -0.31895,0.29112 -0.49178,0.42167 -0.15694,0.11763 -0.32966,0.21048 -0.49877,0.30876 -0.17554,0.10261 -0.35967,0.18845 -0.54303,0.27577 -0.21703,0.0993 -0.43977,0.18518 -0.65991,0.27714 -0.2006,0.0844 -0.40772,0.15354 -0.61516,0.21927 -0.25297,0.083 -0.51103,0.14744 -0.76739,0.21856 -0.2751,0.0773 -0.55118,0.15005 -0.82372,0.23617 -0.31441,0.0997 -0.62401,0.21462 -0.93102,0.33499 -0.30855,0.11794 -0.60348,0.26715 -0.89019,0.43031 -0.28282,0.14783 -0.52402,0.35509 -0.76589,0.55978 -0.28018,0.23281 -0.50248,0.52217 -0.71898,0.81246 -0.1733,0.23102 -0.31754,0.47973 -0.46453,0.72752 -0.1742,0.28757 -0.2967,0.59996 -0.39847,0.91913 -0.0923,0.30323 -0.14688,0.61566 -0.19226,0.92877 -0.0468,0.31869 -0.0701,0.6391 -0.0703,0.96104 0.004,0.26645 0.013,0.5328 0.0193,0.7992 0.006,0.25499 0.01,0.51003 0.0127,0.76506 0.0109,0.21111 5.3e-4,0.42028 -0.0158,0.63049 -0.002,0.16902 -0.0319,0.33224 -0.0683,0.49614 -0.035,0.10463 -0.0716,0.2088 -0.12785,0.30448 -0.0786,0.16323 -0.20211,0.29825 -0.31319,0.43988 -0.12501,0.14861 -0.26665,0.28176 -0.4026,0.42017 -0.1322,0.11858 -0.26539,0.23682 -0.40159,0.35107 -0.12197,0.0972 -0.24913,0.18709 -0.37833,0.27462 -0.12854,0.0837 -0.25897,0.16376 -0.39434,0.23613 -0.17702,0.0985 -0.34945,0.20679 -0.53116,0.29666 -0.19471,0.10244 -0.38957,0.20441 -0.58515,0.30517 -0.21184,0.0995 -0.42441,0.19725 -0.63307,0.30328 -0.18951,0.0951 -0.38099,0.18687 -0.57963,0.26145 -0.23963,0.10023 -0.48721,0.17867 -0.73133,0.26688 -0.16823,0.0626 -0.34271,0.10418 -0.51838,0.13928 -0.23516,0.0569 -0.47101,0.1097 -0.70963,0.14985 -0.21678,0.0352 -0.43541,0.0567 -0.65412,0.0756 -0.20213,0.0249 -0.40369,0.0231 -0.60652,0.0161 -0.17687,-0.0129 -0.34869,-0.044 -0.51973,-0.0898 -0.24261,-0.0673 -0.48571,-0.13911 -0.71845,-0.23584 -0.27307,-0.10106 -0.54275,-0.20992 -0.81204,-0.32064 -0.26187,-0.11312 -0.51347,-0.24762 -0.76541,-0.38086 -0.27616,-0.14824 -0.55113,-0.29823 -0.82312,-0.454 -0.26371,-0.14706 -0.52028,-0.3064 -0.78259,-0.45601 -0.26878,-0.16377 -0.55405,-0.29829 -0.82752,-0.45326 -0.30085,-0.17728 -0.61378,-0.33166 -0.92905,-0.48129 -0.3495,-0.16674 -0.71682,-0.28882 -1.08926,-0.39209 -0.32961,-0.0886 -0.66618,-0.14611 -1.00368,-0.1945 -0.3505,-0.0565 -0.70461,-0.0654 -1.05851,-0.0515 -0.33026,0.0154 -0.65364,0.0779 -0.9711,0.16739 -0.32432,0.0972 -0.62738,0.24572 -0.91498,0.42232 -0.27003,0.17489 -0.50573,0.39247 -0.72979,0.62163 -0.15895,0.1168 -0.24706,0.31645 -0.40123,0.43528 -0.11199,0.12432 -0.23635,0.23461 -0.36152,0.34447 -0.0781,0.056 -0.15876,0.11162 -0.24583,0.15607 -0.0702,0.0283 -0.14416,0.046 -0.21766,0.0634 -0.1649,0.0369 -0.33277,0.0577 -0.50051,0.0766 -0.21812,0.0234 -0.43712,0.037 -0.65611,0.0489 -0.24695,0.0214 -0.49354,0.0158 -0.74072,0.005 -0.27202,-0.0126 -0.54393,-0.019 -0.81469,-0.0483 -0.28051,-0.0325 -0.56173,-0.0579 -0.8433,-0.0791 -0.2542,-0.0302 -0.51356,-0.0132 -0.76712,-0.0465 0,0 -0.26643,2.95742 -0.26643,2.95742 v 0 c 0.27047,0.0211 0.54161,0.0292 0.81222,0.0486 0.25585,0.019 0.51128,0.0425 0.76629,0.0708 0.32877,0.0316 0.6584,0.043 0.98834,0.0562 0.34193,0.0145 0.68389,0.0233 1.02576,5.3e-4 0.27668,-0.0149 0.55332,-0.0323 0.82887,-0.0619 0.29668,-0.0335 0.59311,-0.0735 0.88383,-0.14312 0.33761,-0.0853 0.67069,-0.19154 0.97536,-0.3639 0.2591,-0.15076 0.51415,-0.31252 0.74082,-0.50976 0.17729,-0.15792 0.35357,-0.31655 0.51489,-0.4912 0.14418,-0.15076 0.27533,-0.31241 0.42487,-0.45797 0.0772,-0.0871 0.0992,-0.0984 0.18602,-0.17195 0.005,-0.004 -0.0123,0.005 -0.0184,0.008 0.0426,-0.0346 0.11907,-0.0636 0.14846,-0.0814 0.10255,-0.0301 0.20653,-0.0606 0.32275,-0.0611 0.15314,-0.0324 0.321,0.0132 0.47349,0.0224 0.21485,0.0299 0.4294,0.064 0.63979,0.11771 0.20666,0.0546 0.4109,0.11882 0.60498,0.20951 0.2574,0.12057 0.5111,0.24747 0.75527,0.39338 0.26623,0.14642 0.53857,0.28171 0.79955,0.43778 0.2621,0.14878 0.51578,0.31235 0.78192,0.45414 0.30088,0.17084 0.60585,0.33411 0.90943,0.50007 0.33075,0.17361 0.66165,0.34756 1.00519,0.49507 0.28914,0.1222 0.58029,0.23892 0.87447,0.34836 0.346,0.13141 0.6973,0.24968 1.05569,0.34286 0.381,0.0968 0.76649,0.17267 1.16045,0.18846 0.32136,0.0106 0.64239,0.008 0.96256,-0.0253 0.29995,-0.0261 0.59966,-0.0569 0.89679,-0.10647 0.27045,-0.0465 0.53937,-0.10068 0.80572,-0.16698 0.31851,-0.0659 0.63452,-0.14487 0.9397,-0.25894 0.2612,-0.0959 0.52586,-0.18212 0.78325,-0.28828 0.30102,-0.11767 0.59545,-0.25088 0.88484,-0.39483 0.19075,-0.11988 0.42093,-0.17632 0.61441,-0.29215 0.19851,-0.10079 0.39447,-0.20583 0.59276,-0.30695 0.19716,-0.10295 0.39124,-0.21218 0.58305,-0.32468 0.22776,-0.1237 0.44998,-0.25611 0.66545,-0.40025 0.21344,-0.14773 0.42411,-0.29915 0.62419,-0.4648 0.2036,-0.17533 0.40748,-0.35116 0.59891,-0.53982 0.20967,-0.21834 0.4301,-0.42747 0.61529,-0.66804 0.21859,-0.28233 0.44175,-0.5646 0.6007,-0.88648 0.17,-0.33237 0.31853,-0.67474 0.40052,-1.04072 0.0664,-0.30058 0.11558,-0.60383 0.129,-0.9119 0.0224,-0.29753 0.0322,-0.59515 0.0221,-0.89352 -0.003,-0.2659 -0.007,-0.53179 -0.0129,-0.79765 -0.006,-0.24637 -0.0129,-0.4927 -0.0178,-0.73908 -0.002,-0.17732 0.0164,-0.35308 0.0411,-0.52883 0.0223,-0.15655 0.0467,-0.31323 0.0891,-0.46584 0.032,-0.10948 0.0706,-0.21609 0.13236,-0.31303 0.0892,-0.15541 0.17413,-0.31201 0.28275,-0.45549 0.078,-0.10766 0.15244,-0.22064 0.25118,-0.31033 0.11111,-0.0943 0.21167,-0.19652 0.3443,-0.26128 0.15412,-0.10018 0.32612,-0.17238 0.49481,-0.2436 0.23785,-0.1002 0.48293,-0.18336 0.72912,-0.26028 0.24248,-0.0791 0.49126,-0.13604 0.73515,-0.21049 0.2843,-0.0858 0.57541,-0.14937 0.85715,-0.24454 0.29508,-0.0949 0.59047,-0.19231 0.8757,-0.31402 0.25353,-0.11303 0.51718,-0.20366 0.76715,-0.32528 0.26325,-0.124 0.5257,-0.25023 0.77634,-0.39867 0.26849,-0.16094 0.54364,-0.31232 0.79062,-0.50655 0.2476,-0.19 0.49911,-0.37754 0.71349,-0.60604 0.25869,-0.2456 0.50201,-0.50798 0.71732,-0.79286 0.24628,-0.33455 0.49558,-0.67034 0.66772,-1.05104 0.14124,-0.33271 0.26415,-0.67313 0.33454,-1.02876 0.0639,-0.31097 0.10902,-0.62455 0.13896,-0.94066 0.0227,-0.25148 0.033,-0.50374 0.0563,-0.75521 0.0185,-0.18841 0.0391,-0.37686 0.075,-0.56289 0.025,-0.12294 0.0521,-0.2461 0.099,-0.36287 0.0691,-0.16238 0.14536,-0.32214 0.22596,-0.47902 0.0952,-0.17359 0.18709,-0.34802 0.30033,-0.51112 0.0998,-0.1493 0.19903,-0.29936 0.31569,-0.43617 0.0593,-0.0638 0.12302,-0.12141 0.19447,-0.17145 0.12771,-0.0738 0.25404,-0.14888 0.39091,-0.20531 0.22152,-0.09 0.44072,-0.18528 0.66195,-0.27599 0.19983,-0.0827 0.3977,-0.17014 0.59925,-0.24879 0.18479,-0.0797 0.36727,-0.16441 0.55147,-0.24541 0.23792,-0.0951 0.4743,-0.19455 0.70814,-0.29925 0.2277,-0.11107 0.46671,-0.19845 0.69625,-0.30565 0.29038,-0.13416 0.58213,-0.26925 0.8481,-0.44874 0.23004,-0.1573 0.4663,-0.30611 0.68484,-0.47981 0.22376,-0.17847 0.4457,-0.35851 0.66493,-0.54255 0.17141,-0.14516 0.34125,-0.29203 0.51114,-0.43894 0.2213,-0.1743 0.44265,-0.3486 0.66196,-0.52539 0.21587,-0.18514 0.44763,-0.35128 0.66994,-0.52846 0.25996,-0.1909 0.51949,-0.38206 0.79055,-0.55721 0.26065,-0.1842 0.5159,-0.3752 0.76879,-0.56989 0.26723,-0.20155 0.53712,-0.39994 0.79818,-0.60931 0.19286,-0.15584 0.38265,-0.31685 0.58574,-0.45908 0.2221,-0.15142 0.44279,-0.30546 0.67612,-0.4395 0.24104,-0.15259 0.48172,-0.30584 0.72669,-0.45209 0.22457,-0.12363 0.45607,-0.23387 0.68632,-0.34641 0.2212,-0.1137 0.45002,-0.21292 0.67721,-0.31386 0.21909,-0.0903 0.43689,-0.18675 0.66665,-0.2473 0.17215,-0.0507 0.35008,-0.0884 0.52383,-0.12636 0.19017,-0.009 0.37973,-0.0197 0.56979,2.3e-4 0.18015,0.005 0.35666,0.0712 0.5312,0.10971 0.19951,0.0603 0.39489,0.13318 0.57914,0.23167 0.26163,0.13582 0.52778,0.26172 0.78899,0.39831 0.23732,0.13323 0.46239,0.28603 0.69375,0.42913 0.20416,0.13551 0.40526,0.27489 0.60532,0.41638 0.22084,0.15533 0.44335,0.30849 0.66689,0.45988 0.25183,0.16821 0.51219,0.32328 0.77854,0.46746 0.22392,0.12558 0.44525,0.25548 0.66971,0.3801 0.22136,0.11276 0.44626,0.21722 0.67753,0.30815 0.24723,0.10371 0.49401,0.20979 0.7488,0.29386 0.26524,0.0808 0.53,0.16362 0.80226,0.2185 0.30006,0.0571 0.60089,0.11268 0.90695,0.12489 0.30872,0.01 0.61793,0.0135 0.92516,-0.025 0.29874,-0.0308 0.5972,-0.0674 0.89152,-0.12842 0.29031,-0.0627 0.57803,-0.13709 0.85702,-0.24004 0.24268,-0.0889 0.49405,-0.1549 0.73477,-0.25014 0.24985,-0.0951 0.49826,-0.19432 0.74534,-0.29641 0.2698,-0.1197 0.54994,-0.21666 0.8142,-0.34933 0.22413,-0.11593 0.45576,-0.21756 0.67784,-0.33781 0.17234,-0.0855 0.34229,-0.17584 0.52125,-0.24689 0.18119,-0.07 0.36363,-0.13343 0.55467,-0.1727 0.17145,-0.0467 0.34951,-0.0723 0.52674,-0.0824 0.21675,-0.0124 0.4332,-0.004 0.65016,0.004 0.23759,0.008 0.47518,0.0174 0.71242,0.0331 0.20912,0.0145 0.41825,0.0309 0.62604,0.0592 0.16417,0.0235 0.32819,0.0501 0.48819,0.0947 0.19006,0.0538 0.37991,0.10821 0.56989,0.16204 0.19191,0.0662 0.38296,0.13533 0.57288,0.20689 0.16903,0.0685 0.34015,0.13306 0.50761,0.20503 z" />
    <path
       style="fill:#225500;stroke-width:0.5"
       d="m 594,501.90956 c -0.6875,-0.11234 -3.8375,-0.85511 -7,-1.6506 -3.1625,-0.79549 -6.81875,-1.59848 -8.125,-1.78443 -2.75428,-0.39207 -2.80201,-0.57663 -1.6669,-6.44579 0.72939,-3.77137 1.62436,-4.88444 7.05862,-8.77874 5.22005,-3.7408 7.73328,-8.87496 7.73328,-15.79798 0,-5.96811 -0.85102,-10.84172 -2.64002,-15.11882 -1.75333,-4.19183 -1.80089,-4.09451 2.64002,-5.40171 7.63653,-2.24784 12.46175,-7.11499 13.32941,-13.44522 0.41707,-3.04289 -0.9798,-8.06851 -3.05324,-10.98485 -3.36123,-4.72764 -7.50913,-6.75707 -17.42307,-8.52452 -11.78512,-2.10104 -11.69736,-2.07317 -12.04793,-3.82604 -0.16784,-0.83922 -0.30517,-2.98992 -0.30517,-4.77932 0,-3.0924 0.0898,-3.33816 1.81398,-4.96427 1.02943,-0.97087 5.84103,-3.69956 11.125,-6.30904 9.30134,-4.59345 9.31346,-4.60161 11.66216,-7.84823 3.99117,-5.51703 5.22545,-6.74368 8.4687,-8.41636 l 3.13486,-1.61677 0.6999,1.33582 c 0.51917,0.99087 0.61162,2.27795 0.35802,4.98428 -0.29955,3.19662 -0.19802,3.96206 0.81982,6.18074 0.70559,1.53805 1.48294,2.53229 1.97986,2.53229 0.44999,0 3.03881,1.12155 5.75293,2.49233 2.71412,1.37078 5.56338,2.49578 6.33169,2.5 1.05086,0.006 1.36052,0.22443 1.25,0.88267 -0.0958,0.57025 0.22091,0.9275 0.9092,1.02575 0.58087,0.0829 1.69172,0.81416 2.46855,1.625 0.77683,0.81084 1.88079,1.47425 2.45325,1.47425 1.37639,0 10.48939,9.16452 11.47174,11.53659 0.40693,0.98262 1.10928,4.35762 1.56077,7.5 l 0.82089,5.71341 5.65314,5.75 c 3.17841,3.23287 5.54584,6.03626 5.40803,6.40393 -0.13481,0.35966 0.087,1.03466 0.49298,1.5 0.89223,1.02274 1.63403,3.3428 2.33835,7.3134 0.2895,1.63203 0.98214,3.90883 1.5392,5.05956 0.55706,1.15074 0.96588,2.74044 0.90849,3.53268 -0.12646,1.74579 0.59225,3.14934 2.94778,5.75663 1.03986,1.151 1.59739,2.15612 1.33374,2.40445 -1.66657,1.56977 -25.5429,20.63215 -28.03129,22.37962 -5.11497,3.59197 -5.5601,3.69367 -12.44827,2.84414 -5.2841,-0.6517 -6.39694,-0.6504 -9.64286,0.0113 -5.58494,1.13844 -8.2851,2.89497 -11.96001,7.78035 -1.72117,2.2881 -3.52117,4.45763 -4,4.82118 -0.8345,0.63359 -3.47077,0.78537 -6.1206,0.35237 z"
       id="path34"
       transform="scale(0.26458333)" />
    <path
       style="fill:#225500;stroke-width:0.707107"
       d="m 413.12135,609.80192 c -2.04495,-0.3407 -6.18152,-1.84747 -9.19239,-3.34838 -3.01086,-1.5009 -6.98573,-3.29646 -8.83305,-3.99014 -3.30757,-1.242 -3.35875,-1.30867 -3.35875,-4.3753 0,-2.97641 -2.00381,-8.12149 -3.53046,-9.06501 -0.39723,-0.24551 -1.20459,-1.37913 -1.79413,-2.51917 -0.98723,-1.9091 -0.95739,-2.29721 0.37779,-4.91439 1.7113,-3.35442 5.21426,-6.03391 13.46419,-10.29905 6.43503,-3.32685 13.11526,-8.7542 15.3989,-12.51083 2.86713,-4.7165 2.58339,-11.53719 -0.65101,-15.64906 -1.6899,-2.14837 -6.23701,-4.66878 -8.42299,-4.66878 -3.82483,0 -7.77123,-4.04133 -7.77123,-7.95817 0,-2.47675 3.79245,-7.99311 6.85649,-9.97321 1.4792,-0.95591 5.48821,-2.92487 8.90891,-4.37547 10.91085,-4.62688 16.76151,-11.70798 16.76151,-20.28656 0,-6.37549 -2.22394,-9.98027 -9.45112,-15.3193 -4.83287,-3.57025 -7.05837,-6.26086 -9.98424,-12.07086 l -2.37299,-4.71212 2.24212,-2.80248 c 1.2934,-1.61665 2.72369,-2.70452 3.38022,-2.57097 0.71768,0.14599 1.46424,-0.55587 2.02099,-1.9 0.4856,-1.17232 2.32324,-3.31175 4.08364,-4.75427 1.76041,-1.44252 3.79162,-3.95853 4.5138,-5.59113 0.8453,-1.91096 2.02832,-3.26465 3.32096,-3.80008 1.10435,-0.45743 3.21473,-2.27544 4.68972,-4.04 1.475,-1.76457 3.99474,-3.77356 5.59943,-4.46441 3.08598,-1.32859 9.63514,-7.76176 9.63514,-9.46449 0,-0.55387 1.08473,-1.83439 2.41051,-2.84561 1.76477,-1.34606 2.53793,-2.59281 2.88618,-4.65407 0.26162,-1.54853 1.56338,-4.24002 2.89279,-5.9811 1.32942,-1.74109 2.41713,-3.74818 2.41713,-4.46021 0,-1.68394 11.63885,-13.03125 14.84924,-14.47729 2.91743,-1.31408 9.19416,-6.70004 9.18833,-7.88435 -0.002,-0.45308 0.97844,-4.19255 2.17927,-8.30993 l 2.18333,-7.48615 7.05037,-6.30243 c 3.87771,-3.46634 7.59046,-6.41178 8.25056,-6.54542 0.6601,-0.13364 2.31387,-1.30541 3.67505,-2.60393 1.36118,-1.29853 3.30776,-2.56544 4.32573,-2.81537 1.01797,-0.24993 2.53505,-1.37984 3.37129,-2.51091 0.83625,-1.13108 2.44769,-2.53601 3.58101,-3.12207 1.22751,-0.63477 2.42335,-2.06884 2.95793,-3.54721 0.51267,-1.41773 1.37839,-2.48165 2.01935,-2.48165 2.18053,0 7.88599,-6.71614 9.32401,-10.97569 1.64982,-4.88695 3.23312,-7.43336 4.35434,-7.00311 0.45956,0.17635 3.6631,-2.52006 7.11898,-5.99203 3.45587,-3.47196 6.67908,-6.16082 7.16268,-5.97525 0.48359,0.18558 1.57338,-0.63739 2.42175,-1.82882 0.84837,-1.19142 1.9256,-2.16622 2.39383,-2.16622 1.43536,0 12.12945,-11.48975 13.49188,-14.49569 l 1.28197,-2.82843 2.03297,4.18057 c 1.11812,2.29931 2.54403,4.7453 3.16868,5.43552 0.62464,0.69022 0.91353,1.61444 0.64199,2.05381 -0.27349,0.44251 0.82864,2.36709 2.47076,4.31455 1.6825,1.99535 2.79622,3.95418 2.57539,4.52965 -0.214,0.55768 0.22939,1.44716 0.98531,1.97663 1.04505,0.73198 1.34753,1.71094 1.26227,4.08521 -0.0617,1.7174 0.29187,5.89195 0.78565,9.27677 0.83826,5.74607 1.14108,6.47127 4.56619,10.9349 3.19586,4.16487 4.13798,4.92056 7.31393,5.86659 2.00505,0.59726 3.86259,1.31043 4.12787,1.58484 0.26528,0.27441 1.02976,4.25189 1.69885,8.83884 0.74443,5.10355 1.81682,9.51151 2.76347,11.35905 1.45169,2.83325 1.46943,3.04476 0.28803,3.43497 -6.95018,2.29555 -13.80747,7.41044 -16.60285,12.38414 -1.31599,2.34149 -2.68321,3.28075 -9.65636,6.63384 -10.49295,5.04559 -14.49946,8.11175 -16.83369,12.88274 -1.64905,3.37055 -1.7944,4.34413 -1.53476,10.28047 0.22528,5.15084 0.66043,7.31155 2.02877,10.07371 2.27874,4.59989 4.48368,5.63109 16.73895,7.82845 10.38213,1.86151 13.14096,3.10227 13.49983,6.07144 0.26673,2.20683 -0.7654,3.06326 -5.76455,4.78323 -10.21691,3.51512 -13.20009,9.8582 -9.40408,19.99568 2.1325,5.69496 2.87058,11.31728 1.87981,14.31936 -0.53297,1.61491 -1.95062,3.11256 -4.63083,4.89211 -4.31688,2.86625 -7.7289,7.11125 -8.80452,10.95401 -0.39323,1.4049 -1.08283,5.28629 -1.53244,8.62532 l -0.81746,6.07096 -3.0945,1.64163 c -6.2512,3.31625 -9.4097,9.32181 -9.4097,17.89154 0,6.01469 1.8121,8.84511 8.45494,13.20627 2.95494,1.93997 6.60757,4.79192 8.11695,6.33767 l 2.74433,2.81045 -3.7624,3.39085 c -5.58811,5.03626 -11.90587,10.01986 -14.0309,11.0679 -1.03206,0.509 -4.06839,1.31285 -6.7474,1.78633 -6.03249,1.06615 -9.01446,2.56023 -14.60803,7.31915 -6.95553,5.91764 -6.77792,5.83662 -13.00743,5.9333 -7.0049,0.1087 -9.08668,0.94511 -17.23118,6.92301 -7.149,5.24722 -7.1268,5.24261 -18.51824,3.84576 -5.8252,-0.7143 -7.25135,-0.66743 -10.73636,0.35282 -6.09439,1.78416 -7.97302,3.81094 -12.59331,13.58645 -2.24215,4.74387 -4.65927,8.95128 -5.37139,9.34981 -0.791,0.44267 -4.34747,0.57424 -9.14081,0.33816 -7.20128,-0.35466 -8.55283,-0.204 -16.44673,1.83324 -9.10984,2.35105 -9.7115,2.4066 -15.54398,1.43487 z"
       id="path35"
       transform="scale(0.26458333)" />
  </g>
</svg>
