<?xml version="1.0" encoding="UTF-8" standalone="no"?>
<!-- Created with Inkscape (http://www.inkscape.org/) -->

<svg
   width="100mm"
   height="100mm"
   viewBox="0 0 100 100"
   version="1.1"
   id="svg1"
   inkscape:version="1.4 (e7c3feb100, 2024-10-09)"
   sodipodi:docname="map.svg"
   xmlns:inkscape="http://www.inkscape.org/namespaces/inkscape"
   xmlns:sodipodi="http://sodipodi.sourceforge.net/DTD/sodipodi-0.dtd"
   xmlns="http://www.w3.org/2000/svg"
   xmlns:svg="http://www.w3.org/2000/svg">
  <sodipodi:namedview
     id="namedview1"
     pagecolor="#ffffff"
     bordercolor="#000000"
     borderopacity="0.25"
     inkscape:showpageshadow="2"
     inkscape:pageopacity="0.0"
     inkscape:pagecheckerboard="0"
     inkscape:deskcolor="#d1d1d1"
     inkscape:document-units="mm"
     inkscape:antialias-rendering="false"
     inkscape:clip-to-page="true"
     inkscape:zoom="1"
     inkscape:cx="179"
     inkscape:cy="153.5"
     inkscape:window-width="1896"
     inkscape:window-height="1016"
     inkscape:window-x="0"
     inkscape:window-y="0"
     inkscape:window-maximized="1"
     inkscape:current-layer="layer1" />
  <defs
     id="defs1" />
  <g
     inkscape:label="Layer 1"
     inkscape:groupmode="layer"
     id="layer1">
    <rect
       style="fill:#008000;stroke-width:0.264583"
       id="rect1"
       width="100"
       height="100"
       x="0"
       y="0" />
    <path
       style="fill:#000080;stroke-width:0.264583"
       id="path1"
       d="m 103.38344,18.176167 c -0.53953,-0.06291 -1.08068,-0.109004 -1.62241,-0.147833 -0.69291,-0.06624 -1.38631,-0.05755 -2.080462,-0.02437 -0.796041,0.04855 -1.574183,0.216899 -2.340972,0.427384 -0.768879,0.181748 -1.488948,0.48152 -2.170298,0.876452 -0.605755,0.399118 -1.145413,0.884147 -1.696267,1.352977 -0.492781,0.421581 -0.920015,0.910403 -1.371971,1.373411 -0.438549,0.453949 -0.815353,0.959625 -1.197435,1.460085 -0.350099,0.458492 -0.634577,0.961692 -0.9554,1.439546 -0.359248,0.554896 -0.684408,1.132842 -0.988867,1.719523 -0.328329,0.665369 -0.556718,1.373905 -0.773112,2.081829 -0.187622,0.608944 -0.353095,1.22654 -0.554342,1.831163 -0.140716,0.498004 -0.328983,0.976357 -0.537416,1.448824 -0.172548,0.301458 -0.376862,0.588063 -0.597596,0.856853 -0.281229,0.376978 -0.593781,0.724619 -0.937422,1.044739 -0.335642,0.266454 -0.674864,0.530955 -1.050353,0.739463 -0.423738,0.208248 -0.874424,0.356248 -1.32637,0.489733 -0.651118,0.176186 -1.317736,0.283977 -1.984454,0.380598 -0.685287,0.0961 -1.37468,0.157366 -2.06443,0.210248 -0.522592,0.0066 -1.080267,0.08184 -1.596586,-0.02596 -0.575593,-0.08688 -1.137827,-0.230722 -1.702239,-0.369356 -0.476649,-0.142208 -0.949873,-0.290163 -1.411147,-0.476898 -0.543674,-0.2011 -1.06008,-0.464003 -1.587672,-0.701988 -0.452017,-0.229864 -0.904682,-0.460832 -1.344906,-0.712872 -0.552969,-0.321339 -1.130298,-0.596426 -1.7018,-0.882486 -0.63722,-0.322797 -1.303436,-0.58244 -1.952855,-0.878041 -0.669708,-0.271044 -1.332336,-0.559003 -2.011551,-0.805915 -0.637405,-0.220062 -1.269524,-0.450043 -1.918811,-0.633862 -0.653957,-0.21203 -1.319779,-0.380363 -1.992119,-0.521981 -0.736198,-0.146823 -1.48031,-0.249857 -2.229057,-0.301077 -0.773676,-0.05329 -1.541272,0.03182 -2.302695,0.1608 -0.737891,0.140825 -1.447443,0.385927 -2.145562,0.657752 -0.714912,0.281575 -1.406765,0.609092 -2.068888,0.998468 -0.658333,0.433388 -1.256302,0.951961 -1.840584,1.479056 -0.48023,0.476318 -0.956482,0.957 -1.392516,1.474356 -0.448283,0.496665 -0.821499,1.052925 -1.160245,1.627973 -0.329512,0.506587 -0.589907,1.05242 -0.861621,1.590926 -0.265083,0.570781 -0.492234,1.159582 -0.713057,1.748907 -0.216199,0.588981 -0.344432,1.203473 -0.514419,1.806104 -0.185767,0.641993 -0.30765,1.29908 -0.409398,1.958792 -0.09936,0.674254 -0.157279,1.353511 -0.206899,2.032924 -0.04739,0.67805 -0.07542,1.357217 -0.09957,2.036423 -0.0232,0.680432 -0.03711,1.361131 -0.0491,2.041838 -0.01244,0.557844 -0.05783,1.118867 -0.139946,1.671092 -0.07248,0.499893 -0.210523,0.987465 -0.358526,1.469506 -0.132101,0.384586 -0.326535,0.739085 -0.520652,1.094452 -0.181274,0.259278 -0.414412,0.48827 -0.658429,0.690277 -0.341149,0.304797 -0.700955,0.594087 -1.086236,0.841705 -0.413007,0.248219 -0.833713,0.482463 -1.254408,0.717537 -0.435057,0.195699 -0.877745,0.373232 -1.331008,0.522227 -0.602679,0.196546 -1.215088,0.360071 -1.821677,0.543269 -0.56804,0.182949 -1.150869,0.31047 -1.737151,0.417994 -0.695349,0.104079 -1.35998,0.343212 -2.038898,0.518665 -0.604105,0.12926 -1.206886,0.261993 -1.808821,0.401511 -0.543624,0.126404 -1.096034,0.206708 -1.649442,0.275174 -0.60552,0.07174 -1.213914,0.114102 -1.822378,0.151003 -0.675953,0.01553 -1.345857,0.103685 -2.01643,0.182211 -0.72468,0.06277 -1.433398,0.22742 -2.12835,0.436097 -0.680731,0.21554 -1.347857,0.469984 -1.997782,0.765273 -0.625442,0.269517 -1.197856,0.63523 -1.765831,1.006324 -0.626988,0.42141 -1.183373,0.928126 -1.673626,1.500666 -0.422871,0.465857 -0.748632,1.004938 -1.075136,1.539507 -0.33153,0.580988 -0.595453,1.199447 -0.833311,1.823874 -0.196443,0.613156 -0.409202,1.221044 -0.589843,1.839248 -0.179605,0.50541 -0.329719,1.019789 -0.50429,1.526789 -0.15924,0.496848 -0.360386,0.978871 -0.549033,1.464974 -0.205902,0.440888 -0.370385,0.900583 -0.604586,1.327901 -0.153641,0.336963 -0.388878,0.621866 -0.630709,0.898637 -0.268466,0.292764 -0.562954,0.551865 -0.884815,0.783894 -0.386666,0.282585 -0.806922,0.504568 -1.224584,0.735406 -0.359506,0.213776 -0.751061,0.354412 -1.150715,0.470602 -0.498035,0.17654 -1.001615,0.331083 -1.517022,0.447323 -0.5539442,0.113067 -1.0982275,0.265901 -1.6525145,0.377941 -0.5355341,0.104307 -1.0779556,0.165304 -1.6205121,0.218607 -0.6406231,0.06258 -1.2841282,0.08279 -1.9248006,0.14306 -0.6083958,0.07728 -1.2170878,0.150355 -1.8277815,0.206936 -0.6123181,0.05474 -1.2262684,0.08739 -1.8402781,0.115697 -0.6478465,0.02863 -1.29611751,0.04568 -1.94440268,0.06046 -0.52017286,0.02994 -1.03888722,-0.0031 -1.55799352,-0.0337 0,0 -0.2383447,3.94357 -0.2383447,3.94357 v 0 c 0.6280552,0.03878 1.25640098,0.07601 1.88583357,0.0436 0.67884223,-0.01527 1.35766723,-0.03297 2.03605833,-0.06264 0.6750589,-0.03079 1.3500313,-0.06669 2.023236,-0.126605 0.6231811,-0.05745 1.2449173,-0.127545 1.8652702,-0.210315 0.633671,-0.07411 1.2754742,-0.06612 1.9095294,-0.141804 0.6770994,-0.06633 1.3537387,-0.144383 2.0217812,-0.275936 0.584816,-0.119036 1.16027,-0.274561 1.743911,-0.397492 0.597899,-0.136969 1.189065,-0.299638 1.765202,-0.511765 0.676048,-0.20311 1.33901,-0.448654 1.951145,-0.805542 0.561333,-0.315934 1.124598,-0.625375 1.645805,-1.007017 0.552608,-0.411123 1.070924,-0.860418 1.529891,-1.375858 0.440992,-0.510069 0.853098,-1.050112 1.148337,-1.659876 0.288453,-0.563039 0.534205,-1.144768 0.784053,-1.725703 0.210134,-0.535326 0.428006,-1.068512 0.604832,-1.616104 0.194848,-0.567476 0.365622,-1.142293 0.560011,-1.709991 0.149513,-0.51847 0.33266,-1.026258 0.491134,-1.541915 0.149098,-0.397796 0.32083,-0.788697 0.516154,-1.165723 0.223653,-0.369596 0.438667,-0.746694 0.734822,-1.064746 0.215847,-0.287317 0.508598,-0.503598 0.792288,-0.719651 0.408972,-0.266798 0.814075,-0.541317 1.266347,-0.732108 0.485675,-0.234479 0.997359,-0.406855 1.509065,-0.574889 0.45566,-0.153723 0.933728,-0.239231 1.411533,-0.286192 0.597337,-0.06985 1.19293,-0.155784 1.795418,-0.1651 0.691295,-0.04177 1.38245,-0.09047 2.070341,-0.172416 0.690665,-0.08581 1.379828,-0.187875 2.058156,-0.346246 0.635307,-0.147887 1.271344,-0.28792 1.908331,-0.42816 0.587619,-0.153411 1.163101,-0.361164 1.762356,-0.45943 0.736298,-0.136912 1.46794,-0.299225 2.182902,-0.524608 0.631349,-0.200419 1.276112,-0.359429 1.904889,-0.569428 0.689242,-0.230601 1.369523,-0.493729 2.020292,-0.818566 0.506571,-0.284149 1.013423,-0.567134 1.507456,-0.872937 0.524324,-0.352589 1.031443,-0.734449 1.499848,-1.159147 0.585923,-0.521155 1.146138,-1.08889 1.534798,-1.776751 0.322339,-0.590876 0.623678,-1.193385 0.828397,-1.836963 0.206965,-0.680397 0.388374,-1.370999 0.489236,-2.076021 0.0969,-0.712809 0.166658,-1.431883 0.175207,-2.151587 0.01172,-0.656973 0.02527,-1.313939 0.04791,-1.970643 0.02265,-0.629933 0.04869,-1.259842 0.09288,-1.888696 0.04223,-0.574736 0.09044,-1.149443 0.173876,-1.719924 0.07684,-0.500951 0.168048,-1.000101 0.30992,-1.487368 0.139898,-0.497901 0.248708,-1.004184 0.413491,-1.494655 0.16859,-0.454774 0.345691,-0.907516 0.5397,-1.351799 0.235206,-0.468252 0.458223,-0.943499 0.746871,-1.382326 0.22108,-0.390763 0.485341,-0.75583 0.785828,-1.089618 0.307044,-0.383976 0.672687,-0.716145 1.006144,-1.076439 0.392528,-0.361958 0.798777,-0.71311 1.231019,-1.026593 0.446937,-0.299816 0.966661,-0.471917 1.454873,-0.689952 0.447561,-0.175273 0.898112,-0.341161 1.368837,-0.444984 0.467284,-0.07981 0.935289,-0.145555 1.411219,-0.11076 0.553828,0.01926 1.101849,0.127969 1.646671,0.2222 0.585849,0.121724 1.163386,0.275172 1.732513,0.460632 0.55812,0.155003 1.098026,0.360934 1.64706,0.544242 0.587629,0.209622 1.158209,0.462796 1.737384,0.694063 0.598551,0.265054 1.205923,0.510868 1.792748,0.801981 0.517668,0.261321 1.040067,0.513268 1.540791,0.806524 0.546298,0.30244 1.097147,0.59785 1.660503,0.867503 0.578705,0.258294 1.144702,0.545761 1.739271,0.767755 0.633917,0.251536 1.281543,0.462706 1.939411,0.642882 0.703152,0.171926 1.406713,0.340881 2.123684,0.446875 0.80333,0.09161 1.615056,0.11116 2.421892,0.04419 0.779045,-0.06078 1.557584,-0.131953 2.331368,-0.242662 0.851438,-0.125646 1.701454,-0.270553 2.532613,-0.497756 0.750525,-0.221895 1.498968,-0.468222 2.186633,-0.84863 0.629134,-0.369456 1.222531,-0.796237 1.773259,-1.275439 0.486145,-0.454708 0.932071,-0.945957 1.339604,-1.472735 0.423169,-0.540753 0.828855,-1.102053 1.118907,-1.727523 0.262255,-0.597278 0.495197,-1.204949 0.678222,-1.831662 0.197961,-0.627364 0.380037,-1.260184 0.568997,-1.890258 0.146802,-0.482242 0.303805,-0.964168 0.512448,-1.423601 0.233354,-0.4596 0.48973,-0.909494 0.769173,-1.342424 0.271026,-0.411226 0.52379,-0.834621 0.812173,-1.234328 0.283366,-0.375637 0.561022,-0.756068 0.884462,-1.099204 0.362974,-0.376934 0.70975,-0.770333 1.100246,-1.119639 0.384241,-0.32992 0.762029,-0.66747 1.166344,-0.972896 0.344869,-0.247348 0.782561,-0.32903 1.180616,-0.451897 0.483939,-0.134907 0.971359,-0.253938 1.474753,-0.288835 0.535337,-0.0253 1.068377,-0.03657 1.602687,0.02205 0.45074,0.03395 0.90242,0.06862 1.34879,0.142104 z" />
  </g>
</svg>
